<?xml version="1.0" encoding="UTF-8"?>
<svg id="Calque_2" data-name="Calque 2" xmlns="http://www.w3.org/2000/svg" viewBox="0 0 818.79 538.25">
  <defs>
    <style>
      .cls-1 {
        fill: #fff;
      }

      .cls-2 {
        fill: #447950;
      }

      .cls-3 {
        fill: #f28b25;
      }

      .cls-4 {
        fill: #f9eee4;
      }
    </style>
  </defs>
  <g id="Calque_1-2" data-name="Calque 1">
    <g>
      <g>
        <path class="cls-4" d="M682.84,386.28c-.19,.74,.91,1.32,.19,2.24-1.09,3.8-.08,7.54-.89,11.38,.61,4.68-1.88,9.69-5.21,13.14-3.71,1.91-15.01,6.7-19.05,8.69-3.78,.6-6.42,2.94-9.82,4.45-.63,.16-1.55,.05-2.08,.42-2.74,2.57-6.79,2.83-9.35,5.29-2.58-.37-4.21,2.4-6.66,2.03-1.88,1.3-4.24,2.14-6.3,3.28-3.74,.5-6.6,2.87-9.81,4.31-4.74,1.11-9.03,4.58-13.73,6.37-.56,.29-1.09,.85-1.88,.41-2.06,1.46-4.49,2.52-6.82,3.57-7.81,4.39-15.4,8.86-23.9,10.98-6.19,4.19-23.05,2.79-30.95,2.89-9.03-.82-18.09-.79-26.65,.54-7.44,.13-14.85,1.05-22.35,.5-3.2-1.33-10.15,.79-9.56-4.53-13.1,3.87-13.68-16.56-14.56-25.17,.61-7.1-3.16-13.23-.64-20.09,3.54-5.77,5.21-3.75,10.16-5.39,.74-.57,1.45,.58,2.28,.29l7-.46c2.79-1.4,6.27-.52,9.21-.23,1.91-.51,3.96-.54,5.9-.27,4.98-.03,23.82-2.07,28.05-1.83,3.55-.16,6.79-.49,10.08-.17,1.49,.28,3.07-1.51,4.62-.7,8.77-.2,17.62-4.96,26.04-6.22,8.41-2.95,17.98-4.54,26.21-7.34,3.42,.66,10.17-3.12,13.51-2.5,9.78-1.79,20.12-5.98,29.95-7.5,9.8-3.48,20.38-6.77,30.94-9.3,7.55-3.04,15.42-.76,15.87,7.85,.7,1.06,1.05,2.12,.2,3.07Z"/>
        <path class="cls-4" d="M779.77,386.52c-1.35,4.56,.82,9.74-3.15,13.62-.16,1.27-2.03,3.19-3.13,2.76-2.27,2.48-10.58,4.89-13.21,3.53-5.59,1.3-13.02,2.47-19.09,1.38-.32,.57-.78,.14-1.06,.57-1.08,1.04-2.01,.08-3.03,1.13-3.06,.27-13.94,3.75-13-3.16-5.72,4.47-14.48-4.69-14.41-10.95-.41-.95,1.53-1.28,.38-2.31-.18-.29,.5-.43,.48-.63-.26-1.91,1.45-9.27,2.98-10.37,.58-2.17,3.42-10.52,3.31-12.2,1.71-1.75,1.76-5.1,3.26-6.62,4.37-4.01,9.21-5.53,14.57-7.03,1.9-1.44,4.42-.41,5.82-1.83,1.72,1.06,3.92-1.54,5.52-.51,.13,.09,.33-.65,.51-.53,2.33,1.34,10.03-3.65,11.44-2.46,.14,.17,.37,.1,.42-.11,.52-1.4,1.76-.17,2.42-1.56,5.08-1.34,14.01-.05,15.39,6.08,2.32,2.4,1.16,6.6,2.39,10.48,.17,6.2-.78,14.65,1.19,20.72Z"/>
      </g>
      <g>
        <path class="cls-2" d="M156.6,353.92c0,.14,.12,.32-.23,.41-.07,.01-.08,.09-.05,.14,.4,.58-.06,1.08-.07,1.64,.02,.4,.06,.83-.11,1.21-.18,.38-.43,.73-.46,1.16-.03,.33-.11,.75-.34,.93-.22,.19,.22,.76-.42,.71-.16,.24-.29,.49-.47,.72-.16,.19-.16,.47-.58,.5-.15,.02-.23,.16-.19,.29,.14,.44-.12,.63-.44,.8-.08,.04,.01,.2-.03,.27-.13,.22-.25,.45-.44,.64-.56,.55-.68,1.38-1.16,2-.09,.11,.03,.39-.11,.45-.83,.36-1.01,1.24-1.74,1.65-1.08,.59-1.7,1.57-2.77,2.26-.14,.08-.45-.04-.46,.07-.05,.33-.4,.31-.48,.56-.14,.48-.6,.46-.92,.69-.23,.17-.6,.08-.72,.51-.02,.06-.13,.09-.19,.06-.52-.21-.82,.39-1.3,.29-.2,.12-.41,.22-.62,.26-.21,.04-.47,.06-.61,.05-.32-.01-.65-.06-.98-.01-.09,.02-.18,.11-.28,.16-.05,.03-.1,.08-.14,.05-.59-.44-1.2-.09-1.8-.21-.19-.04-.39-.16-.58-.21-.2-.04-.41,.07-.6-.21-.05-.09-.17-.04-.25-.01-.46,.19-.8-.4-.81-1.36-.01-.1,0-.17,.02-.22h-.09c-.07,.26-.22,.38-.48,.48-.96,.36-1.85-.1-2.58-.19-.9-.26-1.58-.59-2.28-.87-.11-.05-.33,.06-.46-.01-.51-.3-1.15-.48-1.46-1-.35-.56-.76-.99-1.3-1.31-.51-.33-.83-.81-1.16-1.31-.11-.17-.23-.35-.1-.63,.1-.2,.04-.45-.32-.6-.06-.03-.02-.13,0-.2,0-.07,.12-.18,.07-.22-.55-.53-.18-1.19-.18-1.76,.01-.15,.18-.27-.09-.47-.07-.05-.04-.19,.04-.21,.22-.06,.29-.15,.34-.29,.19-.55,.47-1.07,.78-1.55-.19-.44,.15-.61,.33-.85,.15-.18,.39-.28,.6-.4,.2-.12,.17-.45,.58-.39,.06,.01,.04-.12,.11-.19,.16-.16,.22-.24,.32-.35,.09-.1,.2-.18,.34-.21,.14-.03,.29-.06,.39-.14l3.91-3.01c.11-.09,.25-.14,.22-.4-.02-.2,.19-.37,.39-.3,.33,.1,.39-.09,.55-.19,.27-.17,.5-.4,.78-.57,.17-.11,.21-.39,.6-.19,.04,.02,.08-.02,.08-.06-.08-.42,.29-.31,.5-.4,.14-.06,.26-.16,.28-.41,0-.23,.24-.44,.44-.35,.3,.1,.37-.06,.48-.15l.07-.04,.37-1.39,.38-1.54c.11-.51-.1-1.08,.17-1.56,.06-.11-.05-.28,.25-.32,.06-.01,.05-.11,0-.17-.21-.19-.08-.31-.03-.46,.24-.7,.57-1.38,.52-2.13-.03-.58,.19-1.09,.27-1.63,.03-.19,.26-.32,.35-.49,.09-.17,.12-.35,.15-.53,.02-.11,.12-.19-.07-.35-.1-.08-.09-.24,.02-.28,.38-.13,.31-.38,.38-.59l.51-1.82c.05-.15-.06-.36,.31-.41,.05-.01-.03-.12-.05-.18-.02-.07-.1-.16-.04-.2,.55-.28,.42-.76,.55-1.16,.32-.96,.53-1.95,.88-2.91,.1-.27-.12-.58-.02-.84,.09-.25,.14-.52,.24-.76,.07-.18-.02-.41,.37-.49,.11-.02,.15-.15,.08-.23-.28-.29-.03-.46-.02-.69,.03-.28,.32-.48,.06-.84-.08-.08,.17-.21,.23-.34,.11-.23,.2-.46,.27-.71,.03-.12-.03-.32,0-.44,.26-.98,.65-2,1.24-2.42,.07-.06,.15-.11,.24-.17,.05-.02,.09-.05,.15-.06,.04-.07,.08,0,.12-.01,.08,.03,.15,.04,.24,.08l.28,.16c.39,.23,.76,.41,1.15,.69l1.21,1.12,.6,.55,.39,.39c.19,.2,.6,.21,.45,.71,.38-.02,.43,.25,.36,.62-.01,.05,.14,.01,.22,.03,.22,.04,.69-.17,.47,.32-.01,.02,.03,.02,.03,.04,.08,.17,.54-.11,.47,.25-.04,.23,.18,.32,.3,.45,.06,.07,.12,.14,.19,.21,.08,.08,.19,.17,.3,.24,.12,.08,.18,.21,.27,.3,.08,.12,.13,.23,.36,.27,.07,.02-.12,.31-.07,.41,.25,.44,0,.91,.59,1.19,.13,.07,.17,.21,.1,.33-.22,.44,.05,.72,.28,1.05,.29,.43,.5,.93,.15,1.51-.08,.12-.15,.18,.05,.24,.13,.04,.13,.16,.16,.25,.28,1.04,.54,2.08,.78,3.12,.06,.29-.25,.63-.05,.89,.09,.11-.07,.29,.26,.33,.05,0,.09,.05,.07,.08-.29,.41,.29,.67,.22,1.05-.02,.08-.08,.16-.1,.24-.02,.09-.1,.19-.03,.25,.55,.46,.31,1.07,.51,1.6,.07,.18-.09,.42,.32,.53,.06,.02,.06,.1,.02,.14-.42,.39,0,.69-.08,1.04-.04,.18,.24,.35-.13,.54-.04,.03,0,.09,.04,.13,.05,.07,.19,.13,.19,.2,.01,.2-.19,.44-.04,.61,.18,.2,.14,.41,.17,.62,0,.12-.15,.25-.18,.37s.01,.24,.02,.36c0,.16,.09,.33,0,.5-.08,.17,.33,.28,.07,.48-.2,.14,.18,.29,.23,.45,.02,.07-.02,.16-.06,.24-.03,.06-.16,.12-.15,.18,.03,.12-.04,.24,.13,.38,.12,.09-.09,.26-.12,.39-.03,.14,0,.27,0,.41-.01,.14-.09,.28,0,.41,.39,.55,.12,1.1,.1,1.66Z"/>
        <path class="cls-4" d="M156.6,353.92c0,.14,.12,.32-.23,.41-.07,.01-.08,.09-.05,.14,.4,.58-.06,1.08-.07,1.64,.02,.4,.06,.83-.11,1.21-.18,.38-.43,.73-.46,1.16-.03,.33-.11,.75-.34,.93-.22,.19,.22,.76-.42,.71-.16,.24-.29,.49-.47,.72-.16,.19-.16,.47-.58,.5-.15,.02-.23,.16-.19,.29,.14,.44-.12,.63-.44,.8-.08,.04,.01,.2-.03,.27-.13,.22-.25,.45-.44,.64-.56,.55-.68,1.38-1.16,2-.09,.11,.03,.39-.11,.45-.83,.36-1.01,1.24-1.74,1.65-1.08,.59-1.7,1.57-2.77,2.26-.14,.08-.45-.04-.46,.07-.05,.33-.4,.31-.48,.56-.14,.48-.6,.46-.92,.69-.23,.17-.6,.08-.72,.51-.02,.06-.13,.09-.19,.06-.52-.21-.82,.39-1.3,.29-.2,.12-.41,.22-.62,.26-.21,.04-.47,.06-.61,.05-.32-.01-.65-.06-.98-.01-.09,.02-.18,.11-.28,.16-.05,.03-.1,.08-.14,.05-.59-.44-1.2-.09-1.8-.21-.19-.04-.39-.16-.58-.21-.2-.04-.41,.07-.6-.21-.05-.09-.17-.04-.25-.01-.46,.19-.8-.4-.81-1.36-.01-.1,0-.17,.02-.22h-.09c-.07,.26-.22,.38-.48,.48-.96,.36-1.85-.1-2.58-.19-.9-.26-1.58-.59-2.28-.87-.11-.05-.33,.06-.46-.01-.51-.3-1.15-.48-1.46-1-.35-.56-.76-.99-1.3-1.31-.51-.33-.83-.81-1.16-1.31-.11-.17-.23-.35-.1-.63,.1-.2,.04-.45-.32-.6-.06-.03-.02-.13,0-.2,0-.07,.12-.18,.07-.22-.55-.53-.18-1.19-.18-1.76,.01-.15,.18-.27-.09-.47-.07-.05-.04-.19,.04-.21,.22-.06,.29-.15,.34-.29,.19-.55,.47-1.07,.78-1.55-.19-.44,.15-.61,.33-.85,.15-.18,.39-.28,.6-.4,.2-.12,.17-.45,.58-.39,.06,.01,.04-.12,.11-.19,.16-.16,.22-.24,.32-.35,.09-.1,.2-.18,.34-.21,.14-.03,.29-.06,.39-.14l3.91-3.01c.11-.09,.25-.14,.22-.4-.02-.2,.19-.37,.39-.3,.33,.1,.39-.09,.55-.19,.27-.17,.5-.4,.78-.57,.17-.11,.21-.39,.6-.19,.04,.02,.08-.02,.08-.06-.08-.42,.29-.31,.5-.4,.14-.06,.26-.16,.28-.41,0-.23,.24-.44,.44-.35,.3,.1,.37-.06,.48-.15l.07-.04,.37-1.39,.38-1.54c.11-.51-.1-1.08,.17-1.56,.06-.11-.05-.28,.25-.32,.06-.01,.05-.11,0-.17-.21-.19-.08-.31-.03-.46,.24-.7,.57-1.38,.52-2.13-.03-.58,.19-1.09,.27-1.63,.03-.19,.26-.32,.35-.49,.09-.17,.12-.35,.15-.53,.02-.11,.12-.19-.07-.35-.1-.08-.09-.24,.02-.28,.38-.13,.31-.38,.38-.59l.51-1.82c.05-.15-.06-.36,.31-.41,.05-.01-.03-.12-.05-.18-.02-.07-.1-.16-.04-.2,.55-.28,.42-.76,.55-1.16,.32-.96,.53-1.95,.88-2.91,.1-.27-.12-.58-.02-.84,.09-.25,.14-.52,.24-.76,.07-.18-.02-.41,.37-.49,.11-.02,.15-.15,.08-.23-.28-.29-.03-.46-.02-.69,.03-.28,.32-.48,.06-.84-.08-.08,.17-.21,.23-.34,.11-.23,.2-.46,.27-.71,.03-.12-.03-.32,0-.44,.26-.98,.65-2,1.24-2.42,.07-.06,.15-.11,.24-.17,.05-.02,.09-.05,.15-.06,.04-.07,.08,0,.12-.01,.08,.03,.15,.04,.24,.08l.28,.16c.39,.23,.76,.41,1.15,.69l1.21,1.12,.6,.55,.39,.39c.19,.2,.6,.21,.45,.71,.38-.02,.43,.25,.36,.62-.01,.05,.14,.01,.22,.03,.22,.04,.69-.17,.47,.32-.01,.02,.03,.02,.03,.04,.08,.17,.54-.11,.47,.25-.04,.23,.18,.32,.3,.45,.06,.07,.12,.14,.19,.21,.08,.08,.19,.17,.3,.24,.12,.08,.18,.21,.27,.3,.08,.12,.13,.23,.36,.27,.07,.02-.12,.31-.07,.41,.25,.44,0,.91,.59,1.19,.13,.07,.17,.21,.1,.33-.22,.44,.05,.72,.28,1.05,.29,.43,.5,.93,.15,1.51-.08,.12-.15,.18,.05,.24,.13,.04,.13,.16,.16,.25,.28,1.04,.54,2.08,.78,3.12,.06,.29-.25,.63-.05,.89,.09,.11-.07,.29,.26,.33,.05,0,.09,.05,.07,.08-.29,.41,.29,.67,.22,1.05-.02,.08-.08,.16-.1,.24-.02,.09-.1,.19-.03,.25,.55,.46,.31,1.07,.51,1.6,.07,.18-.09,.42,.32,.53,.06,.02,.06,.1,.02,.14-.42,.39,0,.69-.08,1.04-.04,.18,.24,.35-.13,.54-.04,.03,0,.09,.04,.13,.05,.07,.19,.13,.19,.2,.01,.2-.19,.44-.04,.61,.18,.2,.14,.41,.17,.62,0,.12-.15,.25-.18,.37s.01,.24,.02,.36c0,.16,.09,.33,0,.5-.08,.17,.33,.28,.07,.48-.2,.14,.18,.29,.23,.45,.02,.07-.02,.16-.06,.24-.03,.06-.16,.12-.15,.18,.03,.12-.04,.24,.13,.38,.12,.09-.09,.26-.12,.39-.03,.14,0,.27,0,.41-.01,.14-.09,.28,0,.41,.39,.55,.12,1.1,.1,1.66Z"/>
        <path class="cls-3" d="M156.6,353.92c0,.14,.12,.32-.23,.41-.07,.01-.08,.09-.05,.14,.4,.58-.06,1.08-.07,1.64,.02,.4,.06,.83-.11,1.21-.18,.38-.43,.73-.46,1.16-.03,.33-.11,.75-.34,.93-.22,.19,.22,.76-.42,.71-.16,.24-.29,.49-.47,.72-.16,.19-.16,.47-.58,.5-.15,.02-.23,.16-.19,.29,.14,.44-.12,.63-.44,.8-.08,.04,.01,.2-.03,.27-.13,.22-.25,.45-.44,.64-.56,.55-.68,1.38-1.16,2-.09,.11,.03,.39-.11,.45-.83,.36-1.01,1.24-1.74,1.65-1.08,.59-1.7,1.57-2.77,2.26-.14,.08-.45-.04-.46,.07-.05,.33-.4,.31-.48,.56-.14,.48-.6,.46-.92,.69-.23,.17-.6,.08-.72,.51-.02,.06-.13,.09-.19,.06-.52-.21-.82,.39-1.3,.29-.2,.12-.41,.22-.62,.26-.21,.04-.47,.06-.61,.05-.32-.01-.65-.06-.98-.01-.09,.02-.18,.11-.28,.16-.05,.03-.1,.08-.14,.05-.59-.44-1.2-.09-1.8-.21-.19-.04-.39-.16-.58-.21-.2-.04-.41,.07-.6-.21-.05-.09-.17-.04-.25-.01-.46,.19-.8-.4-.81-1.36-.01-.1,0-.17,.02-.22h-.09c-.07,.26-.22,.38-.48,.48-.96,.36-1.85-.1-2.58-.19-.9-.26-1.58-.59-2.28-.87-.11-.05-.33,.06-.46-.01-.51-.3-1.15-.48-1.46-1-.35-.56-.76-.99-1.3-1.31-.51-.33-.83-.81-1.16-1.31-.11-.17-.23-.35-.1-.63,.1-.2,.04-.45-.32-.6-.06-.03-.02-.13,0-.2,0-.07,.12-.18,.07-.22-.55-.53-.18-1.19-.18-1.76,.01-.15,.18-.27-.09-.47-.07-.05-.04-.19,.04-.21,.22-.06,.29-.15,.34-.29,.19-.55,.47-1.07,.78-1.55-.19-.44,.15-.61,.33-.85,.15-.18,.39-.28,.6-.4,.2-.12,.17-.45,.58-.39,.06,.01,.04-.12,.11-.19,.16-.16,.22-.24,.32-.35,.09-.1,.2-.18,.34-.21,.14-.03,.29-.06,.39-.14l3.91-3.01c.11-.09,.25-.14,.22-.4-.02-.2,.19-.37,.39-.3,.33,.1,.39-.09,.55-.19,.27-.17,.5-.4,.78-.57,.17-.11,.21-.39,.6-.19,.04,.02,.08-.02,.08-.06-.08-.42,.29-.31,.5-.4,.14-.06,.26-.16,.28-.41,0-.23,.24-.44,.44-.35,.3,.1,.37-.06,.48-.15l.07-.04,.37-1.39,.38-1.54c.11-.51-.1-1.08,.17-1.56,.06-.11-.05-.28,.25-.32,.06-.01,.05-.11,0-.17-.21-.19-.08-.31-.03-.46,.24-.7,.57-1.38,.52-2.13-.03-.58,.19-1.09,.27-1.63,.03-.19,.26-.32,.35-.49,.09-.17,.12-.35,.15-.53,.02-.11,.12-.19-.07-.35-.1-.08-.09-.24,.02-.28,.38-.13,.31-.38,.38-.59l.51-1.82c.05-.15-.06-.36,.31-.41,.05-.01-.03-.12-.05-.18-.02-.07-.1-.16-.04-.2,.55-.28,.42-.76,.55-1.16,.32-.96,.53-1.95,.88-2.91,.1-.27-.12-.58-.02-.84,.09-.25,.14-.52,.24-.76,.07-.18-.02-.41,.37-.49,.11-.02,.15-.15,.08-.23-.28-.29-.03-.46-.02-.69,.03-.28,.32-.48,.06-.84-.08-.08,.17-.21,.23-.34,.11-.23,.2-.46,.27-.71,.03-.12-.03-.32,0-.44,.26-.98,.65-2,1.24-2.42,.07-.06,.15-.11,.24-.17,.05-.02,.09-.05,.15-.06,.04-.07,.08,0,.12-.01,.08,.03,.15,.04,.24,.08l.28,.16c.39,.23,.76,.41,1.15,.69l1.21,1.12,.6,.55,.39,.39c.19,.2,.6,.21,.45,.71,.38-.02,.43,.25,.36,.62-.01,.05,.14,.01,.22,.03,.22,.04,.69-.17,.47,.32-.01,.02,.03,.02,.03,.04,.08,.17,.54-.11,.47,.25-.04,.23,.18,.32,.3,.45,.06,.07,.12,.14,.19,.21,.08,.08,.19,.17,.3,.24,.12,.08,.18,.21,.27,.3,.08,.12,.13,.23,.36,.27,.07,.02-.12,.31-.07,.41,.25,.44,0,.91,.59,1.19,.13,.07,.17,.21,.1,.33-.22,.44,.05,.72,.28,1.05,.29,.43,.5,.93,.15,1.51-.08,.12-.15,.18,.05,.24,.13,.04,.13,.16,.16,.25,.28,1.04,.54,2.08,.78,3.12,.06,.29-.25,.63-.05,.89,.09,.11-.07,.29,.26,.33,.05,0,.09,.05,.07,.08-.29,.41,.29,.67,.22,1.05-.02,.08-.08,.16-.1,.24-.02,.09-.1,.19-.03,.25,.55,.46,.31,1.07,.51,1.6,.07,.18-.09,.42,.32,.53,.06,.02,.06,.1,.02,.14-.42,.39,0,.69-.08,1.04-.04,.18,.24,.35-.13,.54-.04,.03,0,.09,.04,.13,.05,.07,.19,.13,.19,.2,.01,.2-.19,.44-.04,.61,.18,.2,.14,.41,.17,.62,0,.12-.15,.25-.18,.37s.01,.24,.02,.36c0,.16,.09,.33,0,.5-.08,.17,.33,.28,.07,.48-.2,.14,.18,.29,.23,.45,.02,.07-.02,.16-.06,.24-.03,.06-.16,.12-.15,.18,.03,.12-.04,.24,.13,.38,.12,.09-.09,.26-.12,.39-.03,.14,0,.27,0,.41-.01,.14-.09,.28,0,.41,.39,.55,.12,1.1,.1,1.66Z"/>
      </g>
      <g>
        <path class="cls-2" d="M392.17,230.77c.29-2.92-1.63-4.67-1.63-4.67,0,0-.78-2.34-1.28-3.1-2.86-4.34-5.32-6.69-9.32-7.05-3.89-3.59-15.94-2.93-22.08,.43-1.97,1.79-7.68,.23-8.58,5.39-8.39,6.21-6.78,20.17-6.78,20.17,0,0-.29,7.44,2.15,13.61,2.45,6.17,6.07,9.91,8.01,11.52,1.94,1.61,6.26,2.38,6.26,2.38,0,0,13.2,3.36,19.28-1.72,.42-2.25,3.68-2.15,3.35-4.45,2.32-1.4,4.5-5.31,4.5-5.31l1.5-3.74s1.94-2.21,1.09-4.39c1.62-1.86,1.48-13.02,3.54-19.09Z"/>
        <path class="cls-2" d="M367.99,271.12c-4.72,0-8.91-1.04-9.21-1.12-.14-.02-4.45-.81-6.47-2.49-1.58-1.31-5.52-5.07-8.17-11.74-2.46-6.21-2.2-13.53-2.19-13.84-.06-.49-1.52-14.08,6.83-20.46,.72-3.55,3.6-4.1,5.92-4.55,1.14-.22,2.21-.42,2.78-.94l.11-.08c6.12-3.35,18.29-4.17,22.58-.48,4.25,.45,6.81,3.13,9.55,7.28,.48,.72,1.12,2.57,1.3,3.11,.44,.45,1.98,2.24,1.7,5.02l-.03,.12c-1,2.96-1.48,7.2-1.9,10.94-.47,4.16-.81,6.87-1.55,8.07,.64,2.14-.88,4.16-1.22,4.58l-1.47,3.66c-.12,.22-2.13,3.8-4.44,5.39,.02,1.33-.99,1.99-1.82,2.53-.73,.47-1.41,.92-1.56,1.74l-.04,.19-.15,.13c-2.75,2.29-6.82,2.95-10.55,2.95Zm-9.83-54.28c-.8,.69-2,.92-3.27,1.16-2.25,.43-4.57,.87-5.08,3.87l-.04,.22-.18,.13c-8.03,5.95-6.58,19.53-6.56,19.67,0,.16-.25,7.49,2.12,13.47,2.55,6.44,6.34,10.05,7.85,11.3,1.8,1.5,5.96,2.25,6,2.26,.17,.04,12.83,3.18,18.68-1.48,.3-1.15,1.24-1.76,2-2.26,.94-.61,1.42-.97,1.3-1.81l-.05-.36,.31-.19c2.17-1.31,4.28-5.06,4.3-5.1l1.56-3.84s1.71-1.99,.99-3.82l-.12-.31,.22-.25c.7-.8,1.1-4.33,1.48-7.74,.42-3.77,.9-8.04,1.93-11.11,.23-2.56-1.39-4.08-1.46-4.14l-.1-.1-.05-.14c-.21-.63-.84-2.4-1.22-2.97-2.67-4.04-4.98-6.45-8.91-6.81l-.19-.02-.14-.13c-3.78-3.48-15.6-2.65-21.39,.48Z"/>
      </g>
      <path class="cls-1" d="M493.01,341.95c-.58,1.39-1.78,1.7-3.82,1.5,.15-.05,.29-.08,.43-.13,.85-.25,1.67-.56,2.46-.92,.32-.14,.63-.3,.93-.45Z"/>
      <path class="cls-2" d="M494.07,287.16c-.03-7.33-.19-14.9-2.07-21.95-.9-3.15,.08-6.59-1.34-9.49-2.15-5.96-1.97-12.88-5.01-18.87-.6-1.32-.7-2.93-1.33-4.18-1.67-2.68-.81-5.29-2.24-7.59-1.36-1.33-1.45-3.99-2.04-5.18-1.59-3.85-3.76-8.55-5.79-12.5-1.59-1.47-1.37-3.27-2.19-5.15-3.07-6.64-6.91-13.25-10.43-19.57-4.8-9.1-10.51-17.27-16.67-25.41-6.57-6.89-14.07-13.46-20.21-20.37-1.96-1.47-3.98-3.16-6.3-4.05-2.35-2.14-4.94-4.28-8.17-4.94-1.65-.35-2.27-1.73-3.45-2.7-.82-.83-2.38-1.48-3.38-2.05-2.79-1.56-5.89-3.07-8.68-4.56-2-2.66-5.39-2.06-7.88-3.44-13.04-5.03-26.35-8.48-40.08-10.83-1.5-.19-2.56-.38-3.93,.02-.1,.06-.42,.02-.46-.11-1.35-1.7-3.86-1.4-5.68-1.64-6.09-1.34-12.19-1-18.39-1.14-2-.09-4.03-.1-6-.6-1.94-.31-4.62,.87-6.63-.29-2.03-.76-4.34,.04-6.16,.32-1.94-.86-3.89,.25-5.6,.11-1.99-.08-4.02,.16-6.02,.21,.25-.23,.5-.46,.73-.7,.99-1.03,1.78-2.08,2.8-3,1.5-1.95,3.11-3.9,4.12-6.11,.12-.28,.39-.76,.51-.86,.64-.53,.83-1.31,1.04-1.87,.16-.44,.3-.81,.54-1.21,.56-.96,1.13-1.92,1.66-2.9,.41-.76,.86-1.6,1.19-2.46,.25-.7,.5-1.39,.76-2.09,.1-.24,.23-.5,.49-.58,.28-.01,.4,.31,.45,.54,0,.12,.03,.24,.02,.35v.26s-.02,.37-.02,.37c-.02,.53-.25,1.13-.15,1.59-.27,.4-.37,.98-.56,1.51-.16,.55-.39,1.1-.56,1.65-.13,.45-.22,.89-.4,1.33-.19,.49-.5,.95-.77,1.42-.03,.04-.06,.13-.06,.16-.01,.43-.35,.92-.6,1.37-.44,.84-.9,1.67-1.42,2.47-.47,.77-1.05,1.46-1.52,2.21l-.42,.67c-.38,.52-.4,1.23-.09,1.79,.29,.56,.88,.97,1.45,1.08,.59,.14,1.29-.02,1.76-.44,.35-.37,.56-.7,.84-1.05,1.06-1.39,2.1-2.79,3.07-4.25,.54-.81,1.2-1.81,1.97-2.41,.86-1.63,2.29-3,3.23-4.65,.22-.4,.43-.76,.62-1.2,.24-.58,.7-1.4,1.05-1.88,.33-.45,.57-.87,.79-1.33,.56-1.2,1.28-2.39,1.59-3.64,.03-.15,.17-.47,.23-.54,.5-.54,.72-1.38,1.02-2.09,.58-1.32,1.09-2.68,1.61-4.02,.14-.35,.31-.69,.48-1.01,.25-.5,.43-.97,.63-1.56,.96-2.87,2-5.72,2.77-8.67,.63-2.42,1.63-4.88,1.93-7.41,.86-3.45,1.1-6.95,1.41-10.46,.09-1.16,.16-2.33,.15-3.5,0-.49-.14-1.19-.08-1.43,.19-.71,.05-1.44,.07-2.14,.03-.85-.06-1.66-.01-2.55,.04-1.15-.21-2.5-.18-3.73,0-.17-.03-.49-.07-.59-.29-.6-.31-1.38-.43-2.08-.13-.91-.36-1.62-.65-2.33-.11-.25-.19-.5-.3-.61-.01-.02-.01-.06-.02-.08-.02-.09-.03-.18-.04-.26,.12,.17,.26,.2,.45,.16,.29-.07,.46-.19,.53-.41,.08-.37,.08-1.02-.07-2.04-.19-1.34-.51-2.64-.78-3.93-.28-1.37-.82-2.52-1.21-3.81-.41-1.34-.75-2.76-1.41-3.95-.08-.14-.2-.48-.19-.56,.02-.58-.32-1.25-.54-1.85-.28-.75-.56-1.49-.86-2.23-.25-.66-.65-1.72-1.43-2.37C314.17,.49,312.98,0,311.75,0c-1.22-.02-2.47,.49-3.32,1.37-.18,.19-.3,.33-.44,.46-1.15,1.11-1.13,1.11-2.13,2.38-.47,.59-.99,1.2-1.61,1.71-.4,.34-1.01,.93-1.19,1.24-.36,.64-.89,1.11-1.37,1.63-.97,1.05-1.93,2.07-3.01,2.91-.94,.74-1.92,1.54-3.03,2.02-.34,.14-.95,.52-1.15,.72-.53,.56-1.41,.84-1.91,1.25-.61,.49-1.29,.82-1.97,1.19-1.04,.56-2.13,.99-3.18,1.47l-1.81,.83-.45,.21-.55,.31-.83,.53c-1.1,.71-2.24,1.36-3.41,1.98-.17,.09-.36,.19-.53,.28-2.33,1.37-4.38,2.25-6.17,2.67-.7,.17-1.33,.36-2,.6-.96,.31-1.93,.63-2.9,.92-.97,.29-1.95,.57-2.94,.83l-2.96,.77-2.98,.71-3,.68c-1,.23-2.03,.51-3,.66-.96,.14-1.78,.45-2.69,.62-.52,.1-1.13,.3-1.56,.33-1.07,.06-2.09,.43-3.12,.66-.27,.06-.64,.31-.79,.32-1.25,.08-2.35,.49-3.49,.95-.43,.17-1.05,.31-1.52,.39-.6,.1-1.1,.25-1.63,.51-.18,.1-.54,.25-.63,.25-.13,0-.2,0-.34,.03-.15,.01-.35,.14-.4,.16l.03,.35s-.04-.06-.07-.11c-.02-.02-.05-.09-.06-.12,0,.02-.03,.06-.08,.1-.05,.06-.48,.07-.6,.02-.57-.22-1.66-.19-2.64,.37-.28,.16-.52,.36-.74,.58-.1,.11-.2,.23-.29,.35-.04,.06-.1,.15-.14,.21-.05,.01-.16,.03-.32,.05-.34,.05-.88,.08-1.44,.28-.29,.11-.58,.26-.85,.47-.36,.3-.25,.23-.29,.26-.01,.01-.02,0-.07,.01l-.18,.03-.26,.05c-.36,.07-.7,.18-1.02,.3-.65,.25-1.23,.56-1.77,.88-.64,.38-1.22,.76-1.77,1.03-.28,.13-.55,.24-.8,.31l-.47,.11c-.24,.06-.46,.14-.68,.23-.43,.18-.81,.42-1.14,.67l-.84,.65c-.55,.44-1.09,.88-1.61,1.36-.54,.23-.91,.69-1.37,1.04-.61,.45-1.21,.91-1.8,1.39-1.29,1.05-2.7,2.04-3.81,3.27-.23,.27-.69,.69-.91,.79-.69,.35-1.24,.97-1.81,1.51-.98,.88-1.91,1.83-2.81,2.8-.34,.35-.62,.62-.98,.9-.43,.32-1.08,.83-1.17,1.45-.01,.07-.18,.32-.29,.45-.25,.31-.5,.62-.73,.94-.12,.15-.16,.17-.24,.28-.06,.09-.26,.24-.38,.36-.56,.52-1.12,1.06-1.68,1.63-.55,.57-1.11,1.17-1.57,1.88-.23,.35-.44,.73-.61,1.13-.16,.37-.32,.88-.39,1.18-.04,.14-.08,.26-.12,.35-.03,.06-.04,.08-.08,.15l-.13,.21-.54,.87c-.39,.62-.83,1.44-1.18,1.8-.62,.62-.53,1.2-1.01,1.73-.14,.16-.3,.53-.43,.66-.19,.16-.42,.53-.61,.83-.17,.31-.25,.56-.37,.85-.22,.56-.42,1.13-.68,1.66-.25,1.62-1.39,3.13-1.75,4.75-.39,.4-.56,1.12-.8,1.72-1.01,2.49-1.76,5.13-2.86,7.56-.1,.23-.26,.68-.24,.75,.1,.48-.47,.88-.43,1.43,.05,.52-.37,.99-.53,1.49-.71,2.16-1.36,4.34-1.97,6.53-.08,.27-.06,.73-.12,.83-.53,.96-.79,2.24-.95,3.21-.32,1.81-.82,3.53-1.19,5.3-.33,1.55-.68,3.1-.97,4.65-.16,.9-.41,1.78-.41,2.73,0,.54-.24,1.43-.42,2.1-.1,.34-.13,.41-.34,.87-.69,1.54-.75,3.04-1.01,4.66-2.9,1.82-5.62,3.88-8.03,6.3-.43,.47-2.2,.96-2.47,1.28-.63,.65-1.75,.9-2.48,1.51-6.11,4.56-9.23,11.67-14.25,17.24-2.58,3.4-3.21,7.91-5.53,11.47-.21,.82-.96,2.07-1.22,2.89-.55,.86-1.77,1.61-1.53,2.79,.1,1.87-1.35,3.78-1.75,5.69-1.11,2.64-1.75,5.86-2.82,8.46-1.36,1.4-1.01,3.61-.97,5.24-1.52,1.96-1.33,4.9-1.16,7.1-.96,1.96-2.22,4.18-1.84,6.55-.02,.02-.12,.16-.12,.16-1.14,2.38-1.98,4.9-2.74,7.47-.36,.02-.74,.01-1.13-.04-3.74-.55-7.55-.64-11.41-.75-4.71-.13-9.72-.8-14.63-1.17-1.28-.09-2.49-.15-3.82-.17-1.28,.01-2.53,.12-3.79,.19-2.49,.19-4.93,.44-7.39,.72-6.89,.73-14.05,.69-20.68,2.55-.52,.15-1.57,.27-1.87,.18-1.67-.48-3.74,.08-5.56,.38-7.06,1.14-14.29,1.83-21.1,3.94-1.55,.48-3.47,.66-5.21,1-1.75,.34-3.48,.72-5.23,1.02-.97,.19-2.08,.37-3.07,.73-.5,.18-.97,.37-1.37,.61-.41,.22-.76,.46-1,.72-1.44,1.44-2.43,2.89-3.75,4.13-12.8,12.11-8.48,29.11-12.74,26.8-.8-.43-1.18-2.9-1.36-5.58-.31-4.54,.79-9.05,3.13-12.94,1.83-3.03,4.12-6.92,5.98-10.4,.58-1.1-.7-2.26-1.74-1.55-6.16,4.21-11.6,8.6-13.05,17.28-1.24,3.13-1.37,6.65-1.62,9.97-.14,3.1-.09,6.19,.28,9.21,.1,.88-.1,2.04-.19,3.03-.14,.98-.32,2.03-.38,3.06-.28,4.87,1.17,9.51,.72,14.3-.03,.31,.07,.99,.18,1.17,.76,1.31,.5,3.25,.74,4.86,.57,3.93,.03,7.56,.23,11.38,.16,3.5,.32,7.05,.08,10.36-.05,.38-.07,.81-.14,1.16l-.06,.37c-.03,.15-.07,.3-.06,.46l-.03,.77-.08,2.65-.16,5.31c-.21,7.08-.47,14.13-.62,21.24-.03,1.27-.13,2.85,.09,3.75,.33,1.38,.15,1.98-.1,3.33-1.19,6.35-1.23,13.34-1.04,19.84,.11,4.96,.69,9.53,.24,14.39-.12,1.36-.02,3.36,.29,4.6,1.35,5.43,1.1,11.19,1.78,16.73,.14,1.08-.27,2.96-.11,3.32,1.03,2.26,.76,5.01,1.06,7.49,.3,2.38,.45,4.83,.6,7.25,.14,2.35,.51,5.16,.19,6.93-.49,2.82,.68,4.29,.62,6.5,0,.21,.05,.54,.02,.64-.99,2.67,.06,4.9,.33,7.29,.08,.76,.37,1.79,.26,2.2-.75,2.83-1.04,5.83-.41,9.1-.95,3.33-.28,7.21-.19,10.8,.24,9.55,.89,19.09,1.53,28.6,.55,9.48,1.11,18.98,1.67,28.46l.27,4.02,.21,3c.02,.29,.04,.41,0,.6-.51,3.37-.5,7.6,1.72,11.15,1.11,1.77,2.75,3.17,4.55,4.05,1.81,.89,3.73,1.29,5.59,1.41,1.37,.1,2.63-.31,3.93-.4,1.4-.12,3.19-.65,4.42-1.82,1.28-1.19,1.91-2.73,2.3-4.1,.46-1.59,1-3.56,.81-4.57-.62-3.68-.54-7.42-.69-10.88-.07-1.69,.16-3.47,.64-4.64,.1-.27,.2-.52,.32-.77,.13-.24,.11-.54,.16-.81v-.69l-.03-.53c-.03-.36-.07-.72-.13-1.07-.14-.75-.01-2.57,.23-3.2,.88-2.31,.67-5.01,.7-7.56,.06-3.59-.23-7.22-.67-10.79-.19-1.61-.54-3.13-.93-4.64-.2-.75-.4-1.5-.6-2.26-.1-.36-.19-.71-.29-1.07-.03-.15-.09-.3-.1-.46,.01-.16,.04-.32,.07-.48,.03-.19,.06-.39,.1-.59,.04-.23,.09-.47,.13-.71,1.34-6.71,1.72-13.57,1.57-20.37-.14-6.81-.8-13.57-1.4-20.29-.13-1.44-.29-2.88-.46-4.32l-.25-2.17-.12-1.08c-.03-.34-.08-.78-.09-.97l.07-1.99c0-.34,.03-.69,.06-1.01l.13-.87c.27-1.13,.89-2.14,1.74-2.81,.34-.33,.8-1,1.32-1.46,.48-.39,1.34-1.01,1.59-.96,.87,.1,1.68,.12,2.53,.17,.83,.08,1.69,.3,2.43,.68,.66,.4,1.56,1.11,2.38,1.74l2.52,1.9,2.5,1.9c.07,.05,.15,.1,.21,.17l.23,.23,.57,.56,1.13,1.11c3.05,2.95,6.19,5.8,9.38,8.58,2.23,1.95,4.73,3.7,6.49,6.04,.52,.7,2.19,1.97,2.95,2.26,1.4,.53,2.43,1.58,3.57,2.47,1.92,1.5,3.86,3,5.68,4.58,1.89,1.63,3.57,3.5,5.5,5l.27,.22c.07,.04,.12,.09,.17,.14,1.32,1.24,2.8,2.16,4.29,2.93,.75,.39,1.51,.73,2.29,1.04,.39,.16,.78,.3,1.17,.44,.49,.16,1.02,.35,1.53,.46h.09s.67-.07,.67-.07l.32-.03h.15c.18,.02,.31,.05,.39,.08,.12,.07,.19,.1,.31,.42l.2,.58,.32,.29c2.08,1.9,4.45,3.2,6.74,4.37,2.12,1.09,4.17,2.17,5.93,3.64,1.85,1.5,3.68,3.1,5.43,4.76,3.52,3.3,6.75,6.92,9.9,10.6,.7,.82,1.31,1.59,1.98,2.35,.23,.23,.4,.52,.69,.68,.26,.17,.57,.36,.77,.46,.45,.23,.91,.43,1.41,.57,.55,.17,1.81,.76,2.05,1,1.18,1.23,3.19,1.61,4.94,1.99,.93,.21,1.89,.32,2.84,.35,.95-.02,1.92-.09,2.85-.21,1.86-.36,3.66-.93,5.27-1.8,3.28-1.67,5.99-3.99,8.58-6.37,5.47-5.08,9.89-11,14.34-16.79,2.22-2.89,4.43-5.79,6.77-8.55,1.17-1.38,2.36-2.73,3.63-3.99,.64-.65,1.25-1.22,1.97-1.86,.43-.41,.69-.76,.99-1.09l.9-1.02c1.63-1.84,3.14-3.74,5.36-5.26,1.66-1.12,4.11-3.65,5.39-5.4,1.31-1.79,2.79-3.16,4.32-4.45,2.14-1.76,4.59-3.01,6.17-5.41,.16-.23,.76-.74,.97-.82,2.21-.76,4.07-2.83,6.03-4.37,3.3-2.58,6.54-5.27,9.88-7.82,1.81-1.38,3.4-2.99,5.64-4,1.39-.63,4-2.75,4.96-4,1.06-1.39,2.28-2.35,3.52-3.33l-.11,1.23,2.78-2.21c.73-.58,1.56-.98,2.44-1.25l.72,.4c.05-.2,.08-.4,.12-.59,1.52-.27,3.12-.09,4.54,.6,2.55,1.2,4.24,3.82,4.26,6.64v.11c.56,6.56,1.09,13.17,1.34,19.71,.14,3.23-.01,6.54-.03,9.85l-.11,9.93c-.01,1.65-.16,3.3-.31,4.95-.29,3.21-.02,6.78,.06,10.2,.02,.76,.25,1.81,.14,2.22-.71,2.62-.13,5.55-.23,8.28-.1,2.71-.31,5.42-.21,8.13,.01,.45,.02,.91,.04,1.36q0,.29,0,.44l-.08,.51c-.14,.93-.26,1.87-.34,2.81-.16,1.88-.12,3.79,.32,5.52,.07,3.56,.23,6.81,.03,10.17l-.07,1.26c0,.21-.03,.4-.04,.74v3.24c.01,1.73,.02,3.46,.06,5.2,.05,1.61,.02,2.94-.3,4.27-.13,.5,.03,2.17,.23,2.53,.79,1.4,.71,3.29,1.14,5.03l.42,1.61c.18,.54,.34,1.09,.55,1.64,.42,1.09,1.04,2.35,2.12,3.38,2.18,1.92,4.74,2.94,7.43,3.25,2.63,.28,5.54-.18,7.75-2.02,.55-.45,1.64-1.04,2.28-1.93,.62-.77,1.18-2.06,1.15-2.68,0-.79-.08-1.59-.21-2.37-.06-.39-.13-.77-.21-1.14-.08-.38-.18-.79-.24-.98-.07-.24,0-.45,0-.76,.02-.32,.04-.63,.08-.93,.06-.59,.15-1.13,.25-1.57,.57-2.43,.55-4.63,.59-6.88,.12-6.68,.44-13.32,.33-20.08-.11-7.13,.2-14.59,.98-22.01,.74-6.8,.65-14.11,.93-21.19,.08-1.78-.29-3.37-.26-4.79,.19-9.07,.53-18.16,.71-29.29-.09-8.85,.59-19.81-.39-30.69-.3-3.16-.58-4.97-1.18-5.9-.01-.28-.01-.56-.02-.84,0-.09,0-.17,.02-.26,.11,.17,.26,.28,.48,.29,2.08,.03,3.66-4.23,3.45-10.1-.03-1.07-.08-2.54,.13-3.28,.69-2.37,.48-5,.6-7.55,.12-2.52,.37-5,.42-7.53,.11-7.7-1.11-15.47-1.05-23.16,0-.13,0-.27-.03-.42l-.04-.23c-.01-.05-.02-.12-.03-.15-.03,.04-.08,.01-.1,.01-.01-.01-.02,.02-.02-.06v-.22s0-.45,0-.45v-.89c.02-.61,.04-1.19,.1-1.81,.43-4.15,1.03-8.49,.89-13.08-.08-2.28-.35-4.63-.97-6.96-.31-1.16-.7-2.32-1.21-3.43-.13-.28-.24-.56-.38-.84-.14-.25-.31-.58-.34-.58-.1-.08-.18-.13-.23-.24l.03-.08s.02-.22,.03-.33l.04-.75,.05-1.52,.03-3.08c.04-2.07,.21-4.17,.87-6.23,.17-.51,.32-1.5,.26-1.91-.47-2.79,.51-5.86,.53-9.12,0-.57,0-1.14-.02-1.74l-.03-.59v-.77c.04-1.02,.06-2.05,.09-3.07,.02-2.06-.06-4.13-.46-6.2-.24-1.15-.27-2.51-.31-3.93-.08-1.43-.19-2.91-.53-4.26-.23-.87,.21-2.89,.07-4.77-.66-7.23-1.86-14.46-4.36-21.58-1.3-3.53-2.88-7.11-5.72-10.34-1.42-1.56-3-2.86-4.65-3.95-1.63-1.14-3.33-2.05-5.04-2.93-4.68-2.32-9.74-3.57-14.77-4.43-5.05-.85-10.1-1.34-15.1-1.99-1.65-.23-3.71,.33-5.57,.32-2.38,.02-4.75,.15-7.1,.37-1.18,.1-2.36,.23-3.53,.38l-1.76,.24-.88,.13-.22,.03-.07,.02c-.05,.01-.11,.03-.16,.03h-.09l-3.65-.31-3.78-.36c-2.51-.25-5.04-.58-7.59-.96-3.28-.5-6.64-.81-10-1.06-1.11-.08-2.34,.18-3.3,.02-1-.16-2-.3-3-.41-.99-.11-2-.19-3.08-.22-1.98,.02-3.9,.21-5.88,.63-1.23,.26-3.41,.33-4.53,.1-1.22-.25-2.47-.33-3.73-.34,2.02-7.18,4.22-14.24,6.59-21.25,2.25-9.31,7.28-18.24,13.88-24.88,5.74-5.6,12.42-11.15,19.55-15.29,2.25-2.13,5.53-.99,7.1-3.75,.19-.42,.26-.54,1.42-.95,14.96-6.71,30.45-13.73,46.79-16.51,15.76-3.31,33.29-3.25,49.62-1.52,5.51-.08,10.52,3.11,15.88,1.88,2.71-.19,5.11,2.14,7.9,1.41,4.46,2.37,9.72,2.46,14.6,3.79,3.81,.42,5.8,3.53,9.64,2.93,14.38,3,28.34,8.44,42.05,13.96,.53,.23,.76,.35,1.2,.99,2.54,2.63,6.6,3.53,9.63,5.31,.76,.57,1.98,1.31,2.85,1.72,.98,1.61,2.87,2.71,4.32,3.76,3.43,2.87,5.43,7.84,9.65,9.86,3.3,3.74,7.01,7.43,9.83,11.54,.75,1.38,.41,3.26,2.21,3.8,4.2,3.82,5.91,9.88,9.97,14,.43,.66,.39,1.56,.81,2.32,.47,1.1,1.76,1.6,2.27,2.73,2.36,8.04,6.88,15.63,10.39,23.29,3.43,7.18,3.77,15.35,6.53,22.76,2.82,9.42,4.32,19.05,6.04,28.77,1.02,8.38,3.48,21.59,14.77,18.87,2.49,6.07,10.01-.15,7.95-5.54,1.11,1.79,1.51-.9,1.11-2.06Zm-331.09,44.55c2.09,5.8,4.75,20.58,4.75,20.58l-2.65,16.28s-11.34,15.76-21.8,16.01c-31.19,.76-34.13-31.12-34.13-31.12l2.84-21.15s6.47-19.7,11.19-27.09c5.98-6.26,6.11-14.09,11.41-20.48,4.98-2.58,11.76,7.51,10.94,11.08,6.61,5.08,16.35,26.17,17.45,35.89Z"/>
      <path class="cls-2" d="M644.83,226.58c-3.32-7.25-9.82-11.52-15.76-14.73-7-6.79-23.89-9.79-36.24-8.76-5.56,.77-13.19,3.07-21.5,6.48-1.94-.42-3.44,.69-4.77,1.66-1.21,.89-2.36,1.73-3.78,1.57l-.54-.06-.07,.54c-.08,.63-.44,.85-1.12,1.21-.66,.35-1.46,.77-1.88,1.83-.27-.09-.48-.1-.69-.03-.33,.12-.46,.4-.56,.63-.09,.21-.21,.47-.54,.77-5.79,5.32-11.99,14.28-15.3,20.36-2.79,5.13-2.83,11.33-.09,16.18,1.37,2.43,3.05,3.78,4.99,4.01,.2,.02,.41,.04,.62,.04,4.36,0,9.22-5.23,14.36-10.76,2.36-2.54,4.81-5.17,7.16-7.21,.43-.37,1.43-.98,2.48-1.62,2.21-1.34,3.61-2.23,4.02-2.94,2.47-2.85,5.14-4.26,7.96-5.76,1.37-.72,2.78-1.47,4.19-2.4,1.42-.12,2.75-.89,3.15-1.13,.46-.06,2.11-.29,3.45-.54,1.96-.37,2.87-.45,3.72-.33,5.72,.77,23.9,6.2,25.57,7.12,.76,.42,2.17,.87,3.8,1.39,2.54,.81,5.71,1.82,7.47,3.05,1.99,1.4,7.55,2.6,10.28,.28,2.28-1.93,2.15-5.58-.38-10.85Z"/>
      <g>
        <path class="cls-3" d="M683.03,388.52c-1.09,3.8-.08,7.54-.89,11.38,.61,4.68-1.88,9.69-5.21,13.14-3.71,1.91-15.01,6.7-19.05,8.69-3.78,.6-6.42,2.94-9.82,4.45-.63,.16-1.55,.05-2.08,.42-2.74,2.57-6.79,2.83-9.35,5.29-2.58-.37-4.21,2.4-6.66,2.03-1.88,1.3-4.24,2.14-6.3,3.28-3.74,.5-6.6,2.87-9.81,4.31-4.74,1.11-9.03,4.58-13.73,6.37-.56,.29-1.09,.85-1.88,.41-2.06,1.46-4.49,2.52-6.82,3.57-7.81,4.39-15.4,8.86-23.9,10.98-6.19,4.19-23.05,2.79-30.95,2.89-9.03-.82-18.09-.79-26.65,.54-7.44,.13-14.85,1.05-22.35,.5-3.2-1.33-10.15,.79-9.56-4.53-13.1,3.87-13.68-16.56-14.56-25.17,.61-7.1-3.16-13.23-.64-20.09,3.54-5.77,5.21-3.75,10.16-5.39,.74-.57,1.45,.58,2.28,.29l7-.46c2.79-1.4,6.27-.52,9.21-.23,1.91-.51,3.96-.54,5.9-.27,4.98-.03,23.82-2.07,28.05-1.83,3.55-.16,6.79-.49,10.08-.17,1.49,.28,3.07-1.51,4.62-.7,8.77-.2,17.62-4.96,26.04-6.22,8.41-2.95,17.98-4.54,26.21-7.34,3.42,.66,10.17-3.12,13.51-2.5,9.78-1.79,20.12-5.98,29.95-7.5,9.8-3.48,20.38-6.77,30.94-9.3,7.55-3.04,15.42-.76,15.87,7.85,.7,1.06,1.05,2.12,.2,3.07-.19,.74,.91,1.32,.19,2.24Z"/>
        <path class="cls-3" d="M779.77,386.52c-1.35,4.56,.82,9.74-3.15,13.62-.16,1.27-2.03,3.19-3.13,2.76-2.27,2.48-10.58,4.89-13.21,3.53-5.59,1.3-13.02,2.47-19.09,1.38-.32,.57-.78,.14-1.06,.57-1.08,1.04-2.01,.08-3.03,1.13-3.06,.27-13.94,3.75-13-3.16-5.72,4.47-14.48-4.69-14.41-10.95-.41-.95,1.53-1.28,.38-2.31-.18-.29,.5-.43,.48-.63-.26-1.91,1.45-9.27,2.98-10.37,.58-2.17,3.42-10.52,3.31-12.2,1.71-1.75,1.76-5.1,3.26-6.62,4.37-4.01,9.21-5.53,14.57-7.03,1.9-1.44,4.42-.41,5.82-1.83,1.72,1.06,3.92-1.54,5.52-.51,.13,.09,.33-.65,.51-.53,2.33,1.34,10.03-3.65,11.44-2.46,.14,.17,.37,.1,.42-.11,.52-1.4,1.76-.17,2.42-1.56,5.08-1.34,14.01-.05,15.39,6.08,2.32,2.4,1.16,6.6,2.39,10.48,.17,6.2-.78,14.65,1.19,20.72Z"/>
      </g>
      <path class="cls-2" d="M492.08,342.4c-.79,.36-1.61,.67-2.46,.92-.14,.05-.28,.08-.43,.13,2.04,.2,3.24-.11,3.82-1.5-.3,.15-.61,.31-.93,.45Zm236.89-89.18l-.62,5.2c.29-2.09,.57-4.14,.81-6.21-.09,.33-.15,.66-.19,1.01Z"/>
      <path class="cls-2" d="M818.45,398.19c-3.24-18.91-7.62-36.83-10.44-55.86,.45-3.94-1.16-5.57-1.72-9.44-.21-2.07,.19-5.26-1.11-7.09-5.18-10.17-14.66-20.33-26.66-20.17-15.08,.12-30.72,5.97-45.45,8.17-2.38-.14-4.66-1.08-6.45-2.75-2.52-2.36-3.7-5.8-3.15-9.21,.06-.36,.04-.69-.04-.98,2.95-5.45,.26-11.82,2.52-17.35-.02-5.73,.74-11.55,1.31-16.92,.29-2.37,.6-4.6,.9-6.76,.06-.47,.12-.94,.19-1.41l.62-5.2c.04-.35,.1-.68,.19-1.01,.6-2.49,2.28-4.5,4.47-5.57h.1c3.24,.03,6.92-.22,10.01-.95,3.01,.07,6.27-1,9.11-2.07,1.08-.36,2.6,.11,3.66-.37,2.38-1.3,5.32-2.53,7.49-4.36,5.61-4.76,10.44-10.54,14.37-16.73,.56-1.11,.7-2.72,1.4-3.73,.06,1.51-.79,3.32-1.46,4.65-.7,3.4-2.08,6.85-3.8,9.93-.96,1.6-1.51,3.56-2.85,4.96-.51,.72-1.17,.98-1.47,1.7-.19,.8,.31,1.17,1.08,1.35,.66,.23,1.03-.08,1.7-.31,1.84-.84,3.94-2.11,5.09-3.73,3.3-3.25,5.67-7.59,8.01-11.63,4.1-6.5,6.61-14,8.36-21.49,1.14-4.77,3.03-9.6,3.38-14.53,1.3-9.07,.48-18.22-.74-27.26-.13-.95-.3-2.3-.29-2.77-.07-3.06-1.18-5.97-.95-9.07,.06-2.62,1.2-5.48,1.95-8.07,.4-3.1,2.92-8.08,4.74-13.97,1.66-4.88,4.05-9.48,5.16-14.47,.9-2.99,1.31-6.25,1.58-9.28,.98-4.2,.4-9.01-.13-13.3-.91-4.98-2.65-17.83-8.14-19.49-4.63-.4-3.33,8.04-4.74,10.81-1.57,4.87-3.75,9.78-5.91,14.42-.33,.62-1.12,1.88-1.26,2.4-.32,1.44-.97,3-1.39,4.18-3.5,8.25-8.96,15.27-14.06,22.62-3.07,4.4-6.23,8.8-8.36,11.91-4.76,7.67-7.5,16.39-10.15,24.99,0,.06-.47-.03-.5-.09-.26-1.1-.65-2.26-.72-3.39-.49-3.81-.28-7.47,.34-11.18,.18-1.4,.51-3.17,.66-4.49,.88-2.13,1.25-4.25,2.07-6.4,.73-1.91,2.73-3.33,3.47-5.24,.15-.37,.1-1.19,.21-1.32,.61-.7,.76-1.32,.99-2.1,6.33-11.32,8.57-25.24,6.09-38.04-.76-4.95-2.2-15.3-7-17.79-.39-.18-1.02,.52-1.42,.54-2.77,.34-3,2.98-3.23,5.11-.59,3.15-1.66,6.33-2.98,9.3-.46,.9-.59,2.47-.59,3.55-2.89,8.21-7.04,16.6-12.18,23.54-1.18,1.19-1.81,1.74-2.76,2.73-1.79,2.12-3.55,4.46-5.09,6.81-1.39,2.86-3.81,5.63-4.9,8.7-3.2,5.53-6.03,18.63-6.03,18.63,0,0-.73,4.85-1.71,5.22-.23,1.42-1.19-2.42-1.33-3.02l-.37-3.99c.26-5.58,1.17-10.87,3.11-16.09,1.33-4.7,3.55-8.77,5.37-13.25,.65-1.77,2.1-4.14,2.68-6.12,.95-2.91,1.79-5.78,2.97-8.86,.3-.75,.15-2.41,.19-3.12,.15-2.03,1.66-4.56,1.71-6.45-.06-2.11-.37-5.13-.32-7.01-.17-1.13,.53-1.81,.51-2.69-.16-4.19-.56-8.49-1.75-12.52-.26-.91-.26-2.4-.36-3.16-.31-2.11-1.9-3.96-2.5-5.88-1.31-2.11-1.91-3.99-4.07-4.53-1.2-.12-1.81,.99-2.12,2.02-1.03,3.98-1.72,8.54-3.44,12.45-.09,.18-.4,.51-.51,.84-.53,2.07-1.32,3.12-2.02,5.32-.54,1.55-2.42,3.97-2.88,5.79-1,2.49-2.55,5.02-3.44,7.62-4.38,7.56-9.63,14.66-14.38,22.07-6.6,9.43-12.71,19.35-17.16,30.07-1.06,2.81-1.83,5.74-2.46,8.68-.7,1.16-1.1,2.85-1.45,4.29-.35,1.35-1.31,2.31-1.43,3.42-.12,.93-.35,1.21-.7,2.19-.27,.72-.23,2.42-.27,3.13-.12,2.29-.88,4.77-.79,7.01,.01,.7,.07,1.73-.37,3.02-.7,5-.63,10.18-.41,15.06,0,3.38,1.11,6.48,2.03,9.68,.13,.46-.6,1.44-.61,1.68-.02,1.01,.69,2.26,.99,3.37,2.44,7.73,6.56,15.47,12.83,20.82,2.03,1.81,4.3,3.03,6.29,4.74,3.18,2.08,6.59,3.93,10.1,5.34h0c4.63,1.9,7.56,6.39,7.58,11.23-3.37,17.14-6.49,34.69-10.92,51.14-.56,3.37-1.14,6.75-1.72,10.15-2.06,6.13-7.85,10.45-14.53,10.45h-4.77c-3.16-.57-6.29-1.11-9.35-.61-3.67-2.03-7.53,.16-11.25-1.26-1.63-.9-3.63-.12-5.19-.33-1.35-1.4-2.86,.61-4.29-.27-26.73-4.21-54.39-5.25-81.27-4.36-10.65,1.12-23.18,4.58-34.42,5.68-2.53-.16-3.67,1.63-6.04,1.39-7.73,.25-15,3.68-22.72,3.96-20.62,3.85-40.55,6.99-60.98,12.02-11.39,2.77-26.46,2.56-30.08,14.2h0l-.15,.51s0,.02,0,.03l-1.14,3.87c-1.14,3.88-4.75,6.51-8.79,6.4l-5.37-.92c-4.62-1.21-9.91-1.97-14.83-2.49s-9.47-.81-12.61-1.08c-6.19-2.85-15.21-1.64-21.95-3.04-1.04,1.59-3.61,.85-3.6,3.16-.3,.85-1.85,.46-1.86,1.71-1.22,4.49,.18,9.82,.61,14.56-.45,14.57,10.07,30.19,18.61,40.96-.36,2.29,2.8,2.78,2.59,4.99-.18,.55,.28,1.02,.86,.91,9.42,7.71,16.74,18.05,27.58,21.01,.86,1.67,3.1,1.76,4.82,2.23,2.84,1.06,7.29,2.9,11.62,3.82l7.96,3.62,.23,.05c3.99,0,7.36,2.86,8.01,6.84l2.15,9.09c1.09,5.81,2.38,11.62,3.34,17.39,.47,20.63,27.05,13.47,40.58,14.31,2.66,1.14,6.5,.2,9.19,.75,1.03-.35,1.45-.58,2.62-.14,3.64,.25,7.8-.47,11.26-1.44,9.62-2.08,21.22-.29,31.24-1.96,33.72,1.09,70.3,1.64,99.97-16.54,13.58-6.83,27.92-12.99,41.9-19.96l2.94-.76c4.4-2.18,9.51-.03,11.28,4.23,.54,2.12,1.14,4.22,1.8,6.27l.17,.59h0c.65,1.99,1.35,3.96,2.11,5.87l2.2,5.12c.81,1.11-.05,2.66,1.07,3.47,3.36,2.95,3.91,8.38,7.85,11.07,7.61,12.38,19.95,22.35,33.1,29.1,11.33,2.89,25.26,10.82,37.69,6.11-1.4,7.03,11.57,3.78,15.85,4.23,8.46-1.56,23.84-4.36,16.17-16.19-5.96-7.21-14.81-.26-22.14-1.75-5.04,1-10.16-.19-15.52,.07-24.31-9.14-49.49-28.02-56.26-54.04,.97-1.83-.6-2.99-1.13-4.51-1.38-8.15,2.34-15.66,9.1-19.74,1.35-.47,2.75-.86,4.22-1.06,24.36,.38,48.96-.87,73.27-3.38,7.39-1.01,14.58-4.11,18.19-10.85,4.1-5.81,7.94-14.54,3.91-21.21,3.33,.97,5.42-.38,4.22-5.47Zm-328.83-54.87c.85-.25,1.67-.56,2.46-.92,.32-.14,.63-.3,.93-.45-.58,1.39-1.78,1.7-3.82,1.5,.15-.05,.29-.08,.43-.13Zm310.12,77.34c-.06-.56-.39-1.05-1-1.61-2.13-1.91-2.77-1.38-5.09,.09-3.86,2.46-8.74,1.79-13.11,2.61-20.88,.82-42.15,1.2-63.17,1.91-4.06-.45-7.22,2.4-11.09,2.85-1.11,.52-2.19,1.09-3.26,1.68-4.7,2.61-9.11,5.62-14.52,6.89-3.23,1.46-6.44,2.91-9.65,4.34-19.59,8.81-38.77,17.29-58.15,26.38-4.68,2.53-9.54,3.92-14.22,6.16-1.29,1.55-2.84,1.23-4.52,1.93-2.77,2.03-6.47,1.6-9.5,2.76-1.38,.97-2.61-.42-3.63,1.06-19.77,3.55-40.63,3.81-60.65,5.58-5.01-1.47-10.51,.9-15.57-.49-1.09-.38-2.73-1.14-3.75,.36-4.9,.59-10.07,1.29-15.09,1.39-6.3,.3-13.31,.26-19.18,.62-5.68-1.19-11.3,.99-17.08,.42-8.27-3.36-11.12-3.77-14.63-12.31-1.42-7.6-1.48-16.86-2.75-24.59-2.48-16.89-3.45-33.64-5.72-50.25,0-2.73-1.35-4.63-1.1-7.22,.44-2.37-.25-3.87,.08-5.77-.53-6.88-1.57-13.84-2.48-20.54,1.35-7.07,9.93-8.51,16.18-9.37,2.29-1.76,4.42-.53,6.95-1.82,.67-.51,2.43-.27,3.67-.52,1.93,.13,2.98-1.59,4.92-1.61,2.95,.53,5.37-1.02,8-1.77,12.36-.57,24.33-6.45,36.81-7.56,16.13-3.47,32.36-7.09,48.31-7.88,2.29-1.31,5.04-.17,7.18-1.69,.68-.48,1.71-1.57,3.16-.63,5.27,.31,10.54-1.09,15.59-1.05,16.24,.46,32.32,3.15,48.63,4.75,18.75,1.16,37.27,3.54,56.01,3.84,0,0,4.9,.35,7.35-.65,1.16-.47,2.26-1.01,3.23-1.44,2.51,.01,4.25-1.16,6.65-1.61,5.24-.84,10.45-1.82,15.62-2.89,14.34-2.97,28.46-6.63,42.6-10,32.61-9.59,26.73,15.8,33.49,38.11,2.53,19.6,11.94,40.65,4.48,59.54Z"/>
    </g>
  </g>
</svg>