<?xml version="1.0" encoding="UTF-8"?>
<svg id="Calque_2" data-name="Calque 2" xmlns="http://www.w3.org/2000/svg" viewBox="0 0 3375.25 579.64">
  <defs>
    <style>
      .cls-1 {
        fill: #fff;
      }

      .cls-2 {
        fill: #447950;
      }

      .cls-3 {
        fill: #f28b25;
      }

      .cls-4 {
        fill: #f9eee4;
      }
    </style>
  </defs>
  <g id="Calque_1-2" data-name="Calque 1">
    <g>
      <g>
        <path class="cls-2" d="M1343.83,523.78c-6.11,3.2-6.48,4.6-13.74,3.09l-2.48-5.98v-6.43c-1.09-8.04-.63-17.62-1.2-25.68,.08-14.81-1.75-30.41-.83-45.24,.13-10.47-.59-22.09,.34-32.54-.14-5.83-1.14-13.71-.43-19.53,.22-5.82-.47-13.73,.03-19.54-.56-5.83-.42-13.8,.16-19.61-.35-3.26-.65-9.85-.6-13.13-1.21-8.2,.52-18.05-.94-26.26,.27-5.85-.26-13.87,.24-19.71-.65-3.23-1.01-9.84-.71-13.13,1.08-8.26-.88-18.04-.29-26.29-.35-15.49-.58-32.14-5.07-47.08-1.66-5.9-3.54-14.15-7.32-19.15l-2.23,1.22c2.47,9.52,6.8,20.76,2.8,30.41l-2.23-.7c-.58-3.39-1.51-10.26-2-13.66-1.57-5.97-4.66-13.79-7.56-19.24-4.19-10.52-13.14-19.36-22.67-25.2-5.41-3-13.55-3.82-19.57-4.54-9.12,.55-16.28,1.64-24.02,6.96-2.68,1.86-7.02,6.27-8.76,9.03-2.4,2.5-5.32,8.08-6.23,11.4-10.15,21.46-39.29,82.64-49.64,102.55-4.41,9.51-23.15,49.04-28.72,50.98-5.09-2.22-9.4-13.26-11.03-18.02-2.78-6.47-9.24-20.31-11.5-26.99-4.32-11.67-24.3-51.7-28.41-63.43,0,0-19.43-42.94-21.87-48.42-3.26-7.26-8.21-15.84-15.04-20.26,0,0-5.39-3.39-5.39-3.39l-6.19-1.51c-5.42-1.82-13.14-1.61-18.78-1.71-3.23,1.23-9.93,3.18-13.29,4.01-9.76,5.49-18.92,14.59-22.76,25.28-5.89,9.64-8.03,21.98-9.66,32.97l-1.83,.52c-6.72-8.25-4.21-19.46-.42-28.43l-2-.99c-6.98,8.26-8.05,20.89-8.79,31.28-1.32,5.85-1.12,13.84-.53,19.76-.27,3.35-.53,9.9-.53,13.25,.41,5.95-.68,13.94-.6,19.89-.4,5.93-.22,14-1.26,19.87,.4,12.94-1.43,26.84-1.52,39.77-.29,10.65-.74,22.52-.91,33.17-1.06,5.88-.51,14-1.4,19.9,.38,3.37,.4,10.14,.04,13.51,.93,5.99,.56,14.22,.14,20.24,.49,10.82,.43,22.96-.33,33.75-.41,13.04,.74,27.14,.11,40.15-2.28,10.49-2.04,22.47-2.31,33.14,.37,3.25,.69,10.04,.64,13.32,1.36,6.18,7.76,16.37,10.8,20.97,.23,.35,.77,.09,.65-.32-1.77-5.74-2.45-12.95-2.86-18.47l.11-5.53c.02-1.03,1.44-1.27,1.8-.31,2.14,5.78,5.34,14.87,6.03,17.15,3.77,7.27,9.34,15.09,15.9,20.11,10.83,7.08,25.7,9.68,37.74,4.23,3.2-1.64,8.55-6,10.76-8.84,2.66-2.31,7.2-7.6,9.05-10.61,5.99-9.49,11.14-20.89,15.34-31.26-.44-1.14-4.61,1.11-7.48,2.68-1.6,.88-3.51,1.02-5.23,.4l-2.22-.8c-3.93-7.91-1.56-18.37-2.22-26.84,.52-3.54,.54-10.4,.05-13.93,.49-3.5,.99-10.4,1-13.92-.19-3.55-.03-10.57,.31-14.1-.36-3.62-.09-10.69,.55-14.26-.25-6.4-.49-15.1,.82-21.41-.24-6.03,.48-14.22,.4-20.24-.89-5.85,.4-13.77,.11-19.63-.78-8.23,.35-17.96,.4-26.18-.99-8.19,0-17.98,.43-26.18-.48-3.25-.4-9.85,.16-13.09-.02-8.21-.3-18.01,.04-26.21-.06-2.67,.56-8.73,1.84-11.18,0,0,4.12-2.51,4.12-2.51l-.07-.26,5.52,.65c3.86,3.01,5.07,5.74,6.66,10.06,2.69,5.4,5.49,13.06,7.81,18.61,.62,1.18,1.21,2.4,1.8,3.62l-.18,.23c12.63,28.15,24.87,57.15,37.45,85.32,2.27,6.59,6.12,15.22,9.36,21.39,1.86,6.63,4.88,11.19,8.65,13.42,.81,.59,1.77,1.2,2.94,1.91,0,0,6.31-.04,6.31-.04l5.81-2.41c.92-.9,1.98-2.24,3.01-3.74,.35-.32,.7-.64,1.06-.99,.23-.6,.5-1.21,.74-1.82,.96-1.6,1.78-3.17,2.27-4.39,3.5-5.06,6.8-12.71,9.26-18.3,7.17-11.3,12.09-24.96,18.41-36.69,2.28-5.68,6.55-12.87,9.29-18.32,4.11-7.67,8.34-17.25,13.65-24.19,1.16-3.32,4.52-9.49,6.71-12.25,2.81-5.54,6.92-13.03,10.16-18.34,.83-1.37,2.27-3.57,3.74-5.67,3-4.26,8.97-5.25,13.09-2.06l.11,.09c2.65,4.99,1.34,12.9,1.73,18.34,.94,6.15,.65,14.58,1,20.76-1.03,6.19-.01,14.58,.23,20.78-.4,6.2-.62,14.64,.33,20.8-.06,8.58,.31,18.8,.64,27.38-.64,8.6-.12,18.82,.56,27.4-.71,8.23-.55,18.13,.06,26.36-.3,8.25-.27,18.13,.3,26.36-.64,5.88,.54,13.92-.19,19.8-.31,12.86-1.43,26.73,.09,39.55,1.38,10.3,1.02,23.03,8.14,31.37l2.19-1.02c-2.42-6.11-2.49-14.96-3.6-21.34l3.43-.68c1.48,2.89,3.81,8.87,4.73,11.98,3.97,7.12,9.2,15.21,15.78,20.24,12.61,6.9,24,10.54,37.61,3.84,10.32-4.95,18.16-15.31,23.27-25.28,4.27-7.62,9.58-16.63,12.28-24.99l-1.42-.87Z"/>
        <path class="cls-2" d="M2186.14,484.39c-1.46-12.28-4.99-27-14.39-35.74-15.43-7.74-30.21-15.45-47.71-8.69l-.07,.43c-9.13,1.48-18.56,5.61-24.97,12.41-4.16,2.12-10.27,9.44-13.07,13.21-3.39,7.45-7.14,17.95-9.33,25.83-.66,4.56-3.04,13.38-4.79,17.64-.39,.4-4.5,8.75-5.22,8.57-3.28,3.8-10.9,9.87-15.4,12.12,0,0-7.77,4.01-7.77,4.01-7.02,.11-16.65,.53-23.53-1.17-3.53-2.63-10.47-8.15-13.77-11.06-6.49-9.74-3.94-23.49-3.17-34.45l-1.04,.13c.26-13.77,1.52-29.14,1.47-42.89,.68-4.26,1.11-12.79,.89-17.09l3.57-9.65,8.42-5.7,8.72-3.17c7.76-2.9,18.13-7.43,25.27-11.66,9.44-5.59,18.56-14.7,24.74-23.71,4.35-6.78,4.61-7.62,4.43-15.87-7.87-2.23-18.2,.43-25.71,2.89-4.73,1.13-13.93,3.11-18.66,4.4-4.84,1.17-14.63,3.64-19.48,4.77l-7.48-1.65c-4.46-6.96-3.98-7.84-3.61-15.76-.05-17.16-2.07-35.65-3.36-52.75-.84-10.98,.35-24.09-.78-35.07,.06-4.38,.75-13.15,1.47-17.47,.68-7.81,1.9-18.45,5.07-25.72-.4-.97,7.24-8.08,7.81-8.12,0,0,5.94-6.82,5.94-6.82,3.88-2.38,12.09-5.84,16.56-6.77,13.56-2.49,23.01-.12,33.16,9.37,6.28,8.78,7.33,16.29,6.12,26.78-1.19,8.41-1.29,19.8,2.31,27.69-.95,.31,2.84,9.03,2.88,9.54l5.1,7.72c7.93,8.92,21.32,14.03,32.96,15.4,8.36-.45,19.69-1.59,27.02-6.04,12.26-8.58,10.5-3.02,20.91-16.77,5.84-4.11,10.37-11.89,12.31-18.67l-4.32-2.66-8.97-1.11-4.26-8.1c.06-8.4,.06-19.89,.34-28.28-.8-4.29-3.55-12.51-5.94-16.17,0,0-3.01-7.29-3.01-7.29l-2.37-1.2c.38,3.13,2.28,9.56,3.37,12.55,.48,3.71,1.01,11.21,1.06,14.96l-2.97-1.18c.18-10.83-6.03-22.33-11.24-31.5-18.48-34.01-63.03-30.24-96.26-30.08-8.04,.66-19.03,.07-27.05-.73-11.51,2.34-25.63,3.7-36.25,9.11-7.52,3.73-17.15,9.88-22.94,16.03-2.01,2.96-7.31,9.25-10.61,10.85-4.76,4.87-9.24,13.03-12.6,18.9-1.38,4.41-4.6,13.3-6.22,17.64-.88-3.5,0-10.76,.83-14.24,2.31-3.58,5.76-11.24,6.95-15.33-5.89,5.37-11.69,14.1-13.64,21.87-4.65,13.15-5.72,28.6-5.97,42.44-.77,7.68-.44,18.14,.29,25.81-.17,7.69,.43,18.14,1.49,25.76-.13,8.34-.69,19.61-.43,27.96,.62,8.21,1.48,19.05,.13,27.19,.38,7.28-.25,17.22-1.38,24.43-.37,.74,.9,7.9,.96,8.8-.93,7.49-.4,17.33-.83,24.84,.11,5.06,.61,15.67-.42,20.62-.38,13.08-.4,27.73-.27,40.81h-.47c-1.4,18.71-2.64,40.96,9.55,56.65l1.57-1.53c-1.85-4.59-4.48-14.06-5.27-18.94,.08-4.92,.21-14.85,.25-19.77l1.85,.03c1.68,14.51,3.76,30.72,10.77,43.79,9.67,15.03,26.61,26.54,44.2,29.83,11.87,1.46,25.98,1.01,37.82-.39,4.34,.17,13.06,.11,17.39-.17,4.32,.57,13.03,.84,17.38,.51,4.37,.42,13.04,0,17.34-.88,7.75-.5,18.13-2.36,25.05-6.06,18.97-9.09,35.08-24.99,45.48-43.19,4.26-6.85,7.33-17.45,10.99-24.6l-1.24,10.07-5.65,15.39c8.7-9.25,13.32-15.67,15.96-28.36,.83-8.04,1.79-9.94,6.51-16.39,0,0,1.36-.49,3.01-1.08,3.81-1.37,7.99-1.29,11.75,.21l4.44,1.78Z"/>
        <path class="cls-2" d="M1537.85,371.49c17.94-37,41.97-71.6,55.68-110.62,4.03-12.91,3.18-28.2,4.79-41.51-1.24-16.15-.89-43.48,21.12-24.83-1.24-20.82-15.81-35.08-36.64-35.79-4.58-1.69-13.57-2.41-18.35-1.43-14.07,1.18-21.45,10.64-29.77,20.66-1.57,4.48-4.88,13.51-6.53,17.97,.51,3.88,.35,11.66-.2,15.54l-3.46-11.68c-.27-.63,2.17-12.75,.22-12.32-4.65,4.75-5.9,7.81-6.4,14.29-2.09,8.31-1.32,19.82-1.87,28.27-.78,4.51-.95,13.45-.44,17.98-2.65,11.02-2.72,24.54-3.72,35.77-1.32,17.88-6.08,36.62-9.68,54.1-4.7,12.37-7.04,28.89-18.99,36.61-12.1-2.79-20.16-15.48-24.15-26.45-6.83-9.71-12.36-22.51-15.98-33.76-2.07-10.71-5.56-23.13-6.95-33.98-1.61-7.68-.24-18.26-1.39-26.01-.03-4.6-1.23-13.73-2.32-18.2,.35-4.11,.34-12.74-.06-16.83,1.3-3.57,3.95-10.84,5.35-14.39,8.93-4.68,9.32-4.88,18.98-1.56-2.13-15.18-13.35-27.75-25.93-35.68-8.88-2.58-18.15-6.56-27.51-3.41-8.45,2.82-17.79,10.25-24.49,15.91-2.47,3.73-7.71,11.08-10.41,14.65-2.86,7.63-3.24,18.59-3.14,26.64-5.19-4.67-4.43-5.79-3.79-12.24,.07-4.33-.04-13.9-.12-18.3-11.97,13.06-9.98,23.41-9.84,39.49,.12,4.54,1.38,13.16,2.63,17.51,.2,4.67,2.48,12.94,4.72,17.02,1.39,7.68,6.21,16.79,10.3,23.31,1.42,7.42,5.82,16.55,9.32,23.16,1.37,7.74,6.77,16.61,11.79,22.51,12.63,21.39,25.94,43.24,38.38,64.73,11.67,17.49,10.46,19.3,8.31,39.91,2.65,18.57,4.15,38.75,2.89,57.51,.4,17.11,1.14,35.72,5.4,52.37,1.21,3.48,4.09,17.33,8.33,14.99-.84-8.6-4.25-19.9-1.23-28.4,1.52,4.17,3,12.72,3.11,17.16,0,0,3.85,8.16,3.85,8.16,6.35,11.88,17.12,16.15,29.77,18.12,7.25-1.19,17.24-2.14,24.42-3.72,13.29-3.18,22.92-17.49,24.31-30.64,2.34-6.88,4.79-16.48,3.05-23.74-5.03,4.89-7.47,5.54-14.44,5.74,0,0-5.12-8.08-5.12-8.08-1.18-4.62-3.27-13.91-4.18-18.59,.27-4.77,.64-14.33,.75-19.1-.38-7.97-.66-18.86-1.41-26.79,.15-7.75,.48-18.34-1.25-25.96,4.11-19.42,13.07-38.58,22.29-56.08Z"/>
        <path class="cls-2" d="M1888.96,467.8c-10.24-36.8-56.02-44.08-83.17-20.78-2.66,2.15-7.59,6.92-9.91,9.43-1.66,2.98-5.42,8.75-7.58,11.41-1.76,2.96-4.18,9.4-4.91,12.76,0,0-2.09,6.58-2.09,6.58l.61,7.88c-.61,4.07-3.86,11.02-6.74,14.05-1.13,3.4-4.53,9.71-6.9,12.44-7.79,8.05-20.69,15.3-32.05,11.72-9.89,1.77-17.87-4.02-22.33-12.53-5.27-7.87-6.15-19.18-6.48-28.39-1.54-11.61,.21-24.7,.2-36.36,.62-18.82-.04-38.48-.49-57.26,.5-6.38,.13-15.1-.49-21.47,.54-8.96,.6-19.65,.46-28.63,.96-15.96,1.88-32.82,2.12-48.8-.5-8.58,1.46-18.72,1.54-27.32,.1-8.78-2.18-19.09-2.19-27.87-.32-8.89,4.36-18.53,9.03-25.86,5.4-6.91,14.52-12.32,22.26-16.2,6.01-2.23,14.5-1.64,20.77-1.26,6.19,1.7,12.98,6.49,16.58,11.81,6.07,6.81,6.01,17.84,6.48,26.46v-.05c-1.83,13.33-1.4,14.58,2.28,27.31,7.81,15.51,19.69,25.49,36.8,29.17,18.29,2.37,34.76-3.3,47.8-16.29,4.15-5.39,10.15-12.53,13.38-18.56,1.29-3.64,4.13-10.94,5.59-14.52-2,1.36-7.3,4.1-9.47,5.28,0,0-5.99-3.32-5.99-3.32-1.36-3.34-3.5-10.22-4.29-13.74,.05-3.41-.41-10.21-.93-13.58,.48-8.28-1.49-19.24-8.79-24.21,1.37,10.45,5.03,12.88,.62,23.84-2.29-2.12-2.39-7.98-2.41-10.8-1.85-6.23-3.67-14.95-7.11-20.57-4.47-8.19-12.45-15.47-19.49-21.37-4.98-4.38-13.27-7.02-19.53-8.74-13.54-1.81-28.21-3.06-41.72-5.02-6.27,.76-14.76-.34-21,.66-6.27,.23-14.79-.13-20.92,1.46-31.54,5.09-65.2,19.34-80.98,48.73-5.93,9.68-10.58,21.34-13,32.43-1.26,6.25-4.93,14.11-6.11,20.37-1.77,11.29-3,24.09-2.22,35.5-1.43,8.86-1.06,19.54-.94,28.47-.74,6.34-.65,15.05,.14,21.39-.39,18.72-1.08,38.24-.97,56.99,.06,11.54-1.05,24.43-.47,36,.53,3.56,.18,10.87-.58,14.4,.77,8.97,.36,19.8,.02,28.8-1.65,11.51-2.14,24.58-2.04,36.18,1.55,9.18,2.95,19.89,10.06,26.79-1.04-6.21-1.75-14.79-2.26-21.06-.27-3.21-.81-7.89,1.68-10.55,.85,27.05,15.86,56.53,43.32,64.43,10.9,2.55,23.34,2.05,34.43,1.98,8.69,.36,19.01,.69,27.71,.68,21.87,.93,45.03,.72,65.17-8.98,16.71-8.79,31.66-22.37,40.62-39.13,6.16-6.7,8.74-17.39,12.85-25.33,1.55,10.94-5.94,17.88-7.85,27.92,6.09-6.38,11.79-15.14,15.06-23.33,.64-6.1,3.62-13.9,4.31-19.98,3.09-8.97,8.67-16.45,19.06-12.86,3.42-2.8,3.46-4.38,3.46-8.6Z"/>
        <g>
          <path class="cls-2" d="M2498.18,476.14c-1.72-34.64-41.3-53.17-71.62-34.68-9.47,3.15-17.45,11.45-22.69,19.41-18.87,15.84,12.18,61.8-42.65,68.16-47.66,5.53-46.48-34.97-46.48-34.97-.57-16.55-.52-138.76-3.08-172.1,2.14-7.74,0-13.11-.42-21.09-.02-6.47,.7-17.7,.86-24.27-2.49-11.62-1.83-45.03-.7-48.74,0-14.01-4.96-41.2,17.46-35.88,9.11,3.6-1.33-11.06-1.51-14.95-1.74-5.69-5.64-7.63-9.67-10.06-3.88-5.93-10.2-9.49-17.63-11.46-5.39-1.65-12.9-1.93-19.39-.16-1.54,.04-2.41-1.84-4.06-1.14-18.44,7.25-33.46,26.65-36.11,51.4-.3,1.06,.04,3.14-1.61,2.94-5.24-2.84,2.29-17.51,.38-25.38-16.02,17.45-10.25,40.65-11.89,61.2,.3,30.22,1.32,60.94,.75,91.64-.03,32.57,1.36,58.67-.16,90.71,3.17,24.44-1.07,48.36,2.19,72.63-.51,10.9,3.15,34.7,9.71,38.51-2.28-6.73-2.16-15.8-2.69-23.69-.07-1.01,.53-2.81,1.24-2.59,.8,.25,1.17,2.64,.88,3.7,4.08,35.7,35.34,62.42,68.39,60.94,14.09-.54,18.03,2.47,35.15,2.23,5.9-.08,21.12-3.47,26.89-3.61,40.29,5.08,77.76-28.35,91.11-64.28,.24-.64,1.19-.41,1.1,.28-.7,5.58-2.1,10.99-4.87,15.83-2.27,2.8-3.56,6.76-5.04,10.36,24.39-11.97,14.82-67.03,42.95-58.49,2.37,1.15,3.45,.36,3.21-2.39Z"/>
          <path class="cls-2" d="M2954.55,192.96c-8.16-26.11-19.8-34.55-45.95-38.94-5.54,.29-8.67,4.77-15.07,4.63-1.04,.37-3.18-.53-3.78,.57-17.68,11.55-23.43,27.45-28.53,50.04,.23,.8-.12,1.48-.98,1.34-.87-.58-.96-2.69-1.14-3.71,.19-2.84,1.39-4.54,1.49-7.95,.13-6.18,2.08-14.37,4.35-18.79-.17-.81-.53-1.06-1.25-.42-7.85,5.45-9.45,12.3-10.7,20.04-9.93,27.42-.29,55.04-4.76,83.67-1.93,7.74,2.65,11.45,.7,20.71-1.92,17.9-1.04,40.41-.44,58.94-.38,13.75,1.2,30.23-.78,42.65-.35,5.88,1.05,15.03,1.32,20.91,.26,10.75-2.03,27.6-.38,37.23-2.44,3.7-.57,9.07-.13,13.12,.47,3.42-.42,3.76,.28,7.6h-.62c-.31,36.95-12.75,56.91-52.83,49.2-25.36-8.96-23.67-27.12-21.1-49.2h-.55c1.29-35.85,.4-69.01,.13-104.55,.42-8.12,.24-18.25-.34-25.86,.67-3.67,1-9.03,.16-11.94-3.01-9.88,1.01-24.53-.25-34.53-1.72-19.08,.83-47.53-.96-68.38-1.36-5.34,.78-13.39,.31-18.22-1.13-3.88,.05-11.79-.9-16.54-2.11-11.01,14.14-19.22,19.88-9.76,1.2,2.27,2.29,.78,1.59-1.17-3.61-12.07-8.06-30.1-22.73-33.55-6.56-5.48-15.64-7.03-24.77-5.82-12-.82-21.65,4.49-28.83,13.33-4.34,3.88-9.49,10.08-10.99,14.88-1.94,6.18-2.99,15.44-5.94,20.34-1.02,2.46-2.2-.24-2.59-1.37-.82-4.53,4.6-17.54,5.35-22.03-23.86,24.46-11.74,68.98-13.62,99.65,.03,34-.41,65.11,.27,98.89,1.29,29.48-.27,60.05-.52,90.36,.18,21.84-4.43,56.26,8.16,76.11,4.43,2.46,.06-9.68,.22-11.47-1.47-5.38-2.95-13.02-1.4-17.62-.52-1.83,1.2-3.76,1.44-.93-.76,19.23,11.53,37,23,49.92,5.89,6.39,12.29,9.26,20.01,9.96,7.35,2.15,10.96,4.67,21.31,4.06,66.02-3.1,115.86,8.8,151.82-58.17,1.69-4.58,6.37-16.54,6.27-16.95,5.15-1.71-.5,8.02-.38,10.88-1.77,7.69-6.4,19.02-10.34,23.57,7.61-5.7,13.78-13.13,16.33-23.04,2.95-7.24,5.59-13.58,5.96-22.17,0,0,.65-4.94,.77-7.89h-.08c-1.05-21.54,1.14-42.23,.87-63.9-.5-17.4-2.15-32.81,.47-52.69,1.49-10.01-1.24-17.42-1.38-27.17-.01-6.8,.3-19.31,.56-26.24,2.67-40.45-4.12-78.56,2.65-115.78,4.89-14.25,23.64,4.39,19.35-5.86Z"/>
          <path class="cls-2" d="M2645.16,513.98c-20.87,26.63-21.61-23.85-24.16-37.8-4.61-18.39-2.99-66.12-6.94-85.21-.64-5.91-2.28-61.42-4.71-74.02-2.83-14.65-2.71-17.45-4.44-32.06l-.34,.05c-.35-2.73-.71-5.47-1.1-8.27-.51-3.29-1.84-12.26-3.27-21.92-2.55-17.29-19.48-31.55-36.79-29.13l-7.16,1c-23.99,5.03-27.63,18.33-27.73,34.16-.02,3.52-.3,8.77-.23,12.82-5.69-7.86-4.51-26.51-4.27-32.27,.03-.73-.98-.95-1.24-.27-2.37,6.02-7.34,17.64-4.82,33.04,2.26,13.85,2.59,26.3,5.5,41.43,1.75,11.72,2.29,56.94,2.29,56.94,1.07,16.58,6.88,78.32,6.88,78.32,2.65,18.94,5.03,38.09,7.43,57.45,4.7,22.5,1.65,42.84,20.48,60.05,1.53,2,5.01,1.48,2.18-.94-8.74-6.26-11.64-46.85-3.23-19.63,3.85,18.76,18.02,28.7,38.99,30.74,3.51-.3,4.61-2.96,7.19-4.85,24.46-5.85,43.03-34.74,42.52-60.83,.14-3.38-3-.73-3.03,1.19Z"/>
          <path class="cls-2" d="M2593.1,165.72c3.61,6.02-7.4,17.26-13.76,19.6-4.96,4.68-35.44,13.06-45.82,6.79-12.65-7.65-32.46-6.24-35.5-34.07-.05-.56-.1-1.12-.15-1.7-.69-7.15,.88-32.09,6.63-40.22,.05-.08,.11-.14,.16-.22,1.12-1.58,2.79-3.55,4.3-5.26,.93-1.05,2.82-.06,2.27,1.25-7.22,17.07-.64,26.25-.64,26.25,0,0,.78-5.09,1.24-8.69,1.52-11.55,8.16-21.62,17.52-26.97,6.94-2.31,16.75-3.47,25.87-2.72,9.95,.82,19.07,3.95,22.7,10.37,11.3,4.22,23.48,46.81,15.18,55.61Z"/>
          <path class="cls-2" d="M3373.84,523.89c-6.1,3.19-6.46,4.6-13.72,3.08l-2.48-5.97v-6.41c-1.08-8.03-.63-17.58-1.2-25.63,.08-14.78-1.74-30.35-.83-45.15,.13-10.44-.59-22.05,.34-32.47-.14-5.82-1.14-13.68-.43-19.49,.22-5.81-.47-13.7,.03-19.5-.55-5.81-.42-13.77,.16-19.58-.35-3.25-.65-9.83-.6-13.1-1.21-8.18,.52-18.02-.94-26.21,.27-5.84-.26-13.84,.24-19.67-.65-3.22-1-9.83-.71-13.11,1.08-8.25-.87-18-.29-26.24-.34-15.46-.58-32.08-5.06-46.99-1.66-5.89-3.53-14.12-7.31-19.11l-2.23,1.22c2.47,9.5,6.79,20.72,2.79,30.35l-2.22-.69c-.58-3.38-1.51-10.24-2-13.64-1.57-5.96-4.65-13.77-7.55-19.21-4.18-10.5-13.11-19.33-22.63-25.16-5.4-3-13.53-3.81-19.53-4.53-9.1,.55-16.25,1.64-23.98,6.94-2.68,1.86-7,6.26-8.74,9.01-2.39,2.5-5.31,8.06-6.22,11.38-10.13,21.42-39.22,82.48-49.54,102.35-4.4,9.49-23.11,48.95-28.67,50.89-5.08-2.22-9.38-13.24-11.01-17.98-2.78-6.46-9.23-20.27-11.47-26.93-4.32-11.65-24.25-51.6-28.36-63.31,0,0-19.39-42.86-21.83-48.32-3.25-7.25-8.19-15.81-15.01-20.22,0,0-5.38-3.39-5.38-3.39l-6.17-1.51c-5.41-1.82-13.12-1.61-18.75-1.7-3.23,1.23-9.91,3.18-13.27,4-9.74,5.48-18.88,14.56-22.71,25.23-5.88,9.63-8.01,21.93-9.64,32.9l-1.82,.52c-6.71-8.24-4.2-19.42-.42-28.37l-2-.98c-6.97,8.25-8.04,20.85-8.77,31.22-1.32,5.84-1.12,13.81-.53,19.72-.26,3.35-.53,9.88-.53,13.22,.41,5.94-.68,13.92-.6,19.85-.4,5.92-.22,13.97-1.26,19.83,.4,12.92-1.43,26.79-1.52,39.69-.29,10.63-.74,22.47-.91,33.11-1.06,5.87-.51,13.97-1.4,19.86,.38,3.36,.4,10.12,.04,13.48,.93,5.97,.56,14.2,.14,20.2,.49,10.8,.43,22.92-.33,33.69-.41,13.01,.73,27.09,.11,40.08-2.28,10.47-2.03,22.42-2.31,33.08,.37,3.24,.69,10.02,.64,13.3,1.36,6.17,7.74,16.33,10.78,20.93,.23,.35,.77,.09,.64-.32-1.76-5.73-2.45-12.93-2.85-18.43l.11-5.52c.02-1.02,1.44-1.27,1.79-.31,2.13,5.77,5.33,14.84,6.02,17.12,3.76,7.26,9.32,15.06,15.87,20.08,10.81,7.06,25.65,9.66,37.66,4.22,3.19-1.64,8.53-5.99,10.74-8.83,2.66-2.31,7.18-7.59,9.03-10.59,5.98-9.47,11.12-20.85,15.31-31.2-.44-1.13-4.6,1.11-7.46,2.68-1.6,.88-3.5,1.02-5.22,.4l-2.21-.8c-3.92-7.89-1.56-18.34-2.22-26.79,.52-3.53,.54-10.38,.05-13.9,.49-3.49,.99-10.38,1-13.89-.19-3.54-.03-10.55,.31-14.08-.36-3.61-.09-10.67,.55-14.24-.25-6.38-.48-15.07,.81-21.36-.24-6.02,.48-14.19,.4-20.2-.89-5.84,.4-13.74,.11-19.6-.77-8.21,.35-17.92,.4-26.13-.99-8.17,0-17.95,.43-26.13-.48-3.25-.4-9.83,.16-13.07-.02-8.19-.3-17.97,.04-26.16-.06-2.66,.55-8.71,1.83-11.15,0,0,4.12-2.5,4.12-2.5l-.07-.26,5.51,.65c3.85,3,5.06,5.73,6.64,10.04,2.68,5.39,5.48,13.03,7.8,18.57,.62,1.18,1.21,2.39,1.79,3.61l-.18,.23c12.61,28.1,24.82,57.04,37.38,85.16,2.26,6.58,6.1,15.2,9.34,21.34,1.85,6.61,4.87,11.17,8.63,13.39,.81,.59,1.76,1.2,2.94,1.91,0,0,6.3-.04,6.3-.04l5.8-2.4c.91-.89,1.97-2.24,3-3.73,.35-.32,.7-.64,1.06-.98,.23-.6,.5-1.21,.74-1.82,.96-1.6,1.78-3.17,2.26-4.38,3.49-5.05,6.78-12.68,9.25-18.27,7.16-11.28,12.06-24.91,18.37-36.62,2.28-5.67,6.53-12.84,9.27-18.29,4.11-7.65,8.32-17.22,13.62-24.14,1.16-3.31,4.51-9.47,6.7-12.23,2.8-5.53,6.9-13.01,10.14-18.3,.83-1.37,2.27-3.56,3.74-5.66,2.99-4.25,8.95-5.24,13.06-2.06l.11,.09c2.64,4.98,1.34,12.87,1.73,18.3,.94,6.14,.65,14.55,.99,20.72-1.03,6.17-.01,14.55,.23,20.74-.4,6.18-.62,14.61,.33,20.76-.06,8.56,.31,18.77,.64,27.32-.64,8.58-.12,18.78,.56,27.35-.7,8.21-.55,18.1,.06,26.31-.3,8.23-.27,18.09,.3,26.31-.64,5.87,.54,13.89-.19,19.76-.31,12.84-1.43,26.67,.09,39.47,1.38,10.28,1.02,22.98,8.12,31.31l2.19-1.01c-2.42-6.09-2.48-14.93-3.6-21.3l3.42-.68c1.48,2.88,3.8,8.86,4.73,11.96,3.97,7.11,9.18,15.18,15.75,20.2,12.59,6.88,23.96,10.52,37.53,3.84,10.3-4.94,18.12-15.29,23.23-25.23,4.27-7.61,9.56-16.59,12.26-24.94l-1.42-.87Z"/>
        </g>
      </g>
      <g>
        <g>
          <path class="cls-4" d="M735.35,415.98c-.2,.8,.98,1.42,.2,2.41-1.17,4.09-.09,8.12-.96,12.26,.66,5.04-2.02,10.44-5.61,14.15-4,2.06-16.16,7.22-20.51,9.36-4.07,.65-6.91,3.17-10.58,4.79-.68,.17-1.67,.05-2.24,.45-2.95,2.77-7.31,3.05-10.07,5.7-2.78-.4-4.53,2.58-7.17,2.19-2.02,1.4-4.57,2.3-6.78,3.53-4.03,.54-7.11,3.09-10.56,4.64-5.1,1.2-9.72,4.93-14.79,6.86-.6,.31-1.17,.92-2.02,.44-2.22,1.57-4.84,2.71-7.34,3.84-8.41,4.73-16.58,9.54-25.74,11.82-6.67,4.51-24.82,3-33.33,3.11-9.72-.88-19.48-.85-28.7,.58-8.01,.14-15.99,1.13-24.07,.54-3.45-1.43-10.93,.85-10.3-4.88-14.11,4.17-14.73-17.83-15.68-27.11,.66-7.65-3.4-14.25-.69-21.63,3.81-6.21,5.61-4.04,10.94-5.8,.8-.61,1.56,.62,2.46,.31l7.54-.5c3-1.51,6.75-.56,9.92-.25,2.06-.55,4.26-.58,6.35-.29,5.36-.03,25.65-2.23,30.21-1.97,3.82-.17,7.31-.53,10.86-.18,1.6,.3,3.31-1.63,4.98-.75,9.44-.22,18.97-5.34,28.04-6.7,9.06-3.18,19.36-4.89,28.23-7.9,3.68,.71,10.95-3.36,14.55-2.69,10.53-1.93,21.67-6.44,32.25-8.08,10.55-3.75,21.95-7.29,33.32-10.02,8.13-3.27,16.61-.82,17.09,8.45,.75,1.14,1.13,2.28,.22,3.31Z"/>
          <path class="cls-4" d="M839.73,416.24c-1.45,4.91,.88,10.49-3.39,14.67-.17,1.37-2.19,3.44-3.37,2.97-2.44,2.67-11.39,5.27-14.23,3.8-6.02,1.4-14.02,2.66-20.56,1.49-.34,.61-.84,.15-1.14,.61-1.16,1.12-2.16,.09-3.26,1.22-3.3,.29-15.01,4.04-14-3.4-6.16,4.81-15.59-5.05-15.52-11.79-.44-1.02,1.65-1.38,.41-2.49-.19-.31,.54-.46,.52-.68-.28-2.06,1.56-9.98,3.21-11.17,.62-2.34,3.68-11.33,3.56-13.14,1.84-1.88,1.9-5.49,3.51-7.13,4.71-4.32,9.92-5.96,15.69-7.57,2.05-1.55,4.76-.44,6.27-1.97,1.85,1.14,4.22-1.66,5.94-.55,.14,.1,.36-.7,.55-.57,2.51,1.44,10.8-3.93,12.32-2.65,.15,.18,.4,.11,.45-.12,.56-1.51,1.9-.18,2.61-1.68,5.47-1.44,15.09-.05,16.57,6.55,2.5,2.58,1.25,7.11,2.57,11.29,.18,6.68-.84,15.78,1.28,22.31Z"/>
        </g>
        <g>
          <path class="cls-2" d="M168.64,381.14c0,.15,.13,.34-.25,.44-.08,.01-.09,.1-.05,.15,.43,.62-.06,1.16-.08,1.77,.02,.43,.06,.89-.12,1.3-.19,.41-.46,.79-.5,1.25-.03,.36-.12,.81-.37,1-.24,.2,.24,.82-.45,.76-.17,.26-.31,.53-.51,.78-.17,.2-.17,.51-.62,.54-.16,.02-.25,.17-.2,.31,.15,.47-.13,.68-.47,.86-.09,.04,.01,.22-.03,.29-.14,.24-.27,.48-.47,.69-.6,.59-.73,1.49-1.25,2.15-.1,.12,.03,.42-.12,.48-.89,.39-1.09,1.34-1.87,1.78-1.16,.64-1.83,1.69-2.98,2.43-.15,.09-.48-.04-.5,.08-.05,.36-.43,.33-.52,.6-.15,.52-.65,.5-.99,.74-.25,.18-.65,.09-.78,.55-.02,.06-.14,.1-.2,.06-.56-.23-.88,.42-1.4,.31-.22,.13-.44,.24-.67,.28-.23,.04-.51,.06-.66,.05-.34-.01-.7-.06-1.06-.01-.1,.02-.19,.12-.3,.17-.05,.03-.11,.09-.15,.05-.64-.47-1.29-.1-1.94-.23-.2-.04-.42-.17-.62-.23-.22-.04-.44,.08-.65-.23-.05-.1-.18-.04-.27-.01-.5,.2-.86-.43-.87-1.46-.01-.11,0-.18,.02-.24h-.1c-.08,.28-.24,.41-.52,.52-1.03,.39-1.99-.11-2.78-.2-.97-.28-1.7-.64-2.46-.94-.12-.05-.36,.06-.5-.01-.55-.32-1.24-.52-1.57-1.08-.38-.6-.82-1.07-1.4-1.41-.55-.36-.89-.87-1.25-1.41-.12-.18-.25-.38-.11-.68,.11-.22,.04-.48-.34-.65-.06-.03-.02-.14,0-.22,.01-.08,.13-.19,.08-.24-.59-.57-.19-1.28-.19-1.9,.01-.16,.19-.29-.1-.51-.08-.05-.04-.2,.04-.23,.24-.06,.31-.16,.37-.31,.2-.59,.51-1.15,.84-1.67-.2-.47,.16-.66,.36-.92,.16-.19,.42-.3,.65-.43,.22-.13,.18-.48,.62-.42,.06,.01,.04-.13,.12-.2,.17-.17,.24-.26,.34-.38,.1-.11,.22-.19,.37-.23,.15-.03,.31-.06,.42-.15l4.21-3.24c.12-.1,.27-.15,.24-.43-.02-.22,.2-.4,.42-.32,.36,.11,.42-.1,.59-.2,.29-.18,.54-.43,.84-.61,.18-.12,.23-.42,.65-.2,.04,.02,.09-.02,.09-.06-.09-.45,.31-.33,.54-.43,.15-.06,.28-.17,.3-.44,0-.25,.26-.47,.47-.38,.32,.11,.4-.06,.52-.16l.08-.04,.4-1.5,.41-1.66c.12-.55-.11-1.16,.18-1.68,.06-.12-.05-.3,.27-.34,.06-.01,.05-.12,0-.18-.23-.2-.09-.33-.03-.5,.26-.75,.61-1.49,.56-2.29-.03-.62,.2-1.17,.29-1.76,.03-.2,.28-.34,.38-.53,.1-.18,.13-.38,.16-.57,.02-.12,.13-.2-.08-.38-.11-.09-.1-.26,.02-.3,.41-.14,.33-.41,.41-.64l.55-1.96c.05-.16-.06-.39,.33-.44,.05-.01-.03-.13-.05-.19-.02-.08-.11-.17-.04-.22,.59-.3,.45-.82,.59-1.25,.34-1.03,.57-2.1,.95-3.13,.11-.29-.13-.62-.02-.9,.1-.27,.15-.56,.26-.82,.08-.19-.02-.44,.4-.53,.12-.02,.16-.16,.09-.25-.3-.31-.03-.5-.02-.74,.03-.3,.34-.52,.06-.9-.09-.09,.18-.23,.25-.37,.12-.25,.22-.5,.29-.76,.03-.13-.03-.34,.01-.47,.28-1.06,.7-2.15,1.34-2.61,.08-.06,.16-.12,.26-.18,.05-.02,.1-.05,.16-.06,.04-.08,.09,0,.13-.01,.09,.03,.16,.04,.26,.09l.3,.17c.42,.25,.82,.44,1.24,.74l1.3,1.21,.65,.59,.42,.42c.2,.22,.65,.23,.48,.76,.41-.02,.46,.27,.39,.67-.01,.05,.15,.01,.24,.03,.24,.04,.74-.18,.51,.34-.01,.02,.03,.02,.03,.04,.09,.18,.58-.12,.51,.27-.04,.25,.19,.34,.32,.48,.06,.08,.13,.15,.2,.23,.09,.09,.2,.18,.32,.26,.13,.09,.19,.23,.29,.32,.09,.13,.14,.25,.39,.29,.08,.02-.13,.33-.08,.44,.27,.47,.01,.98,.64,1.28,.14,.08,.18,.23,.11,.36-.24,.47,.05,.78,.3,1.13,.31,.46,.54,1,.16,1.63-.09,.13-.16,.19,.05,.26,.14,.04,.14,.17,.17,.27,.3,1.12,.58,2.24,.84,3.36,.06,.31-.27,.68-.05,.96,.1,.12-.08,.31,.28,.36,.05,0,.1,.05,.08,.09-.31,.44,.31,.72,.24,1.13-.02,.09-.09,.17-.11,.26-.02,.1-.11,.2-.03,.27,.59,.5,.33,1.15,.55,1.72,.08,.19-.1,.45,.34,.57,.06,.02,.06,.11,.02,.15-.45,.42-.01,.74-.09,1.12-.04,.19,.26,.38-.14,.58-.04,.03,0,.1,.04,.14,.05,.08,.2,.14,.2,.22,.01,.22-.2,.47-.04,.66,.19,.22,.15,.44,.18,.67,.01,.13-.16,.27-.19,.4s.01,.26,.02,.39c.01,.17,.1,.36,.01,.54-.09,.18,.36,.3,.08,.52-.22,.15,.19,.31,.25,.48,.02,.08-.02,.17-.06,.26-.03,.06-.17,.13-.16,.19,.03,.13-.04,.26,.14,.41,.13,.1-.1,.28-.13,.42-.03,.15-.01,.29-.01,.44-.01,.15-.1,.3,0,.44,.42,.59,.13,1.18,.11,1.79Z"/>
          <path class="cls-4" d="M168.64,381.14c0,.15,.13,.34-.25,.44-.08,.01-.09,.1-.05,.15,.43,.62-.06,1.16-.08,1.77,.02,.43,.06,.89-.12,1.3-.19,.41-.46,.79-.5,1.25-.03,.36-.12,.81-.37,1-.24,.2,.24,.82-.45,.76-.17,.26-.31,.53-.51,.78-.17,.2-.17,.51-.62,.54-.16,.02-.25,.17-.2,.31,.15,.47-.13,.68-.47,.86-.09,.04,.01,.22-.03,.29-.14,.24-.27,.48-.47,.69-.6,.59-.73,1.49-1.25,2.15-.1,.12,.03,.42-.12,.48-.89,.39-1.09,1.34-1.87,1.78-1.16,.64-1.83,1.69-2.98,2.43-.15,.09-.48-.04-.5,.08-.05,.36-.43,.33-.52,.6-.15,.52-.65,.5-.99,.74-.25,.18-.65,.09-.78,.55-.02,.06-.14,.1-.2,.06-.56-.23-.88,.42-1.4,.31-.22,.13-.44,.24-.67,.28-.23,.04-.51,.06-.66,.05-.34-.01-.7-.06-1.06-.01-.1,.02-.19,.12-.3,.17-.05,.03-.11,.09-.15,.05-.64-.47-1.29-.1-1.94-.23-.2-.04-.42-.17-.62-.23-.22-.04-.44,.08-.65-.23-.05-.1-.18-.04-.27-.01-.5,.2-.86-.43-.87-1.46-.01-.11,0-.18,.02-.24h-.1c-.08,.28-.24,.41-.52,.52-1.03,.39-1.99-.11-2.78-.2-.97-.28-1.7-.64-2.46-.94-.12-.05-.36,.06-.5-.01-.55-.32-1.24-.52-1.57-1.08-.38-.6-.82-1.07-1.4-1.41-.55-.36-.89-.87-1.25-1.41-.12-.18-.25-.38-.11-.68,.11-.22,.04-.48-.34-.65-.06-.03-.02-.14,0-.22,.01-.08,.13-.19,.08-.24-.59-.57-.19-1.28-.19-1.9,.01-.16,.19-.29-.1-.51-.08-.05-.04-.2,.04-.23,.24-.06,.31-.16,.37-.31,.2-.59,.51-1.15,.84-1.67-.2-.47,.16-.66,.36-.92,.16-.19,.42-.3,.65-.43,.22-.13,.18-.48,.62-.42,.06,.01,.04-.13,.12-.2,.17-.17,.24-.26,.34-.38,.1-.11,.22-.19,.37-.23,.15-.03,.31-.06,.42-.15l4.21-3.24c.12-.1,.27-.15,.24-.43-.02-.22,.2-.4,.42-.32,.36,.11,.42-.1,.59-.2,.29-.18,.54-.43,.84-.61,.18-.12,.23-.42,.65-.2,.04,.02,.09-.02,.09-.06-.09-.45,.31-.33,.54-.43,.15-.06,.28-.17,.3-.44,0-.25,.26-.47,.47-.38,.32,.11,.4-.06,.52-.16l.08-.04,.4-1.5,.41-1.66c.12-.55-.11-1.16,.18-1.68,.06-.12-.05-.3,.27-.34,.06-.01,.05-.12,0-.18-.23-.2-.09-.33-.03-.5,.26-.75,.61-1.49,.56-2.29-.03-.62,.2-1.17,.29-1.76,.03-.2,.28-.34,.38-.53,.1-.18,.13-.38,.16-.57,.02-.12,.13-.2-.08-.38-.11-.09-.1-.26,.02-.3,.41-.14,.33-.41,.41-.64l.55-1.96c.05-.16-.06-.39,.33-.44,.05-.01-.03-.13-.05-.19-.02-.08-.11-.17-.04-.22,.59-.3,.45-.82,.59-1.25,.34-1.03,.57-2.1,.95-3.13,.11-.29-.13-.62-.02-.9,.1-.27,.15-.56,.26-.82,.08-.19-.02-.44,.4-.53,.12-.02,.16-.16,.09-.25-.3-.31-.03-.5-.02-.74,.03-.3,.34-.52,.06-.9-.09-.09,.18-.23,.25-.37,.12-.25,.22-.5,.29-.76,.03-.13-.03-.34,.01-.47,.28-1.06,.7-2.15,1.34-2.61,.08-.06,.16-.12,.26-.18,.05-.02,.1-.05,.16-.06,.04-.08,.09,0,.13-.01,.09,.03,.16,.04,.26,.09l.3,.17c.42,.25,.82,.44,1.24,.74l1.3,1.21,.65,.59,.42,.42c.2,.22,.65,.23,.48,.76,.41-.02,.46,.27,.39,.67-.01,.05,.15,.01,.24,.03,.24,.04,.74-.18,.51,.34-.01,.02,.03,.02,.03,.04,.09,.18,.58-.12,.51,.27-.04,.25,.19,.34,.32,.48,.06,.08,.13,.15,.2,.23,.09,.09,.2,.18,.32,.26,.13,.09,.19,.23,.29,.32,.09,.13,.14,.25,.39,.29,.08,.02-.13,.33-.08,.44,.27,.47,.01,.98,.64,1.28,.14,.08,.18,.23,.11,.36-.24,.47,.05,.78,.3,1.13,.31,.46,.54,1,.16,1.63-.09,.13-.16,.19,.05,.26,.14,.04,.14,.17,.17,.27,.3,1.12,.58,2.24,.84,3.36,.06,.31-.27,.68-.05,.96,.1,.12-.08,.31,.28,.36,.05,0,.1,.05,.08,.09-.31,.44,.31,.72,.24,1.13-.02,.09-.09,.17-.11,.26-.02,.1-.11,.2-.03,.27,.59,.5,.33,1.15,.55,1.72,.08,.19-.1,.45,.34,.57,.06,.02,.06,.11,.02,.15-.45,.42-.01,.74-.09,1.12-.04,.19,.26,.38-.14,.58-.04,.03,0,.1,.04,.14,.05,.08,.2,.14,.2,.22,.01,.22-.2,.47-.04,.66,.19,.22,.15,.44,.18,.67,.01,.13-.16,.27-.19,.4s.01,.26,.02,.39c.01,.17,.1,.36,.01,.54-.09,.18,.36,.3,.08,.52-.22,.15,.19,.31,.25,.48,.02,.08-.02,.17-.06,.26-.03,.06-.17,.13-.16,.19,.03,.13-.04,.26,.14,.41,.13,.1-.1,.28-.13,.42-.03,.15-.01,.29-.01,.44-.01,.15-.1,.3,0,.44,.42,.59,.13,1.18,.11,1.79Z"/>
          <path class="cls-3" d="M168.64,381.14c0,.15,.13,.34-.25,.44-.08,.01-.09,.1-.05,.15,.43,.62-.06,1.16-.08,1.77,.02,.43,.06,.89-.12,1.3-.19,.41-.46,.79-.5,1.25-.03,.36-.12,.81-.37,1-.24,.2,.24,.82-.45,.76-.17,.26-.31,.53-.51,.78-.17,.2-.17,.51-.62,.54-.16,.02-.25,.17-.2,.31,.15,.47-.13,.68-.47,.86-.09,.04,.01,.22-.03,.29-.14,.24-.27,.48-.47,.69-.6,.59-.73,1.49-1.25,2.15-.1,.12,.03,.42-.12,.48-.89,.39-1.09,1.34-1.87,1.78-1.16,.64-1.83,1.69-2.98,2.43-.15,.09-.48-.04-.5,.08-.05,.36-.43,.33-.52,.6-.15,.52-.65,.5-.99,.74-.25,.18-.65,.09-.78,.55-.02,.06-.14,.1-.2,.06-.56-.23-.88,.42-1.4,.31-.22,.13-.44,.24-.67,.28-.23,.04-.51,.06-.66,.05-.34-.01-.7-.06-1.06-.01-.1,.02-.19,.12-.3,.17-.05,.03-.11,.09-.15,.05-.64-.47-1.29-.1-1.94-.23-.2-.04-.42-.17-.62-.23-.22-.04-.44,.08-.65-.23-.05-.1-.18-.04-.27-.01-.5,.2-.86-.43-.87-1.46-.01-.11,0-.18,.02-.24h-.1c-.08,.28-.24,.41-.52,.52-1.03,.39-1.99-.11-2.78-.2-.97-.28-1.7-.64-2.46-.94-.12-.05-.36,.06-.5-.01-.55-.32-1.24-.52-1.57-1.08-.38-.6-.82-1.07-1.4-1.41-.55-.36-.89-.87-1.25-1.41-.12-.18-.25-.38-.11-.68,.11-.22,.04-.48-.34-.65-.06-.03-.02-.14,0-.22,.01-.08,.13-.19,.08-.24-.59-.57-.19-1.28-.19-1.9,.01-.16,.19-.29-.1-.51-.08-.05-.04-.2,.04-.23,.24-.06,.31-.16,.37-.31,.2-.59,.51-1.15,.84-1.67-.2-.47,.16-.66,.36-.92,.16-.19,.42-.3,.65-.43,.22-.13,.18-.48,.62-.42,.06,.01,.04-.13,.12-.2,.17-.17,.24-.26,.34-.38,.1-.11,.22-.19,.37-.23,.15-.03,.31-.06,.42-.15l4.21-3.24c.12-.1,.27-.15,.24-.43-.02-.22,.2-.4,.42-.32,.36,.11,.42-.1,.59-.2,.29-.18,.54-.43,.84-.61,.18-.12,.23-.42,.65-.2,.04,.02,.09-.02,.09-.06-.09-.45,.31-.33,.54-.43,.15-.06,.28-.17,.3-.44,0-.25,.26-.47,.47-.38,.32,.11,.4-.06,.52-.16l.08-.04,.4-1.5,.41-1.66c.12-.55-.11-1.16,.18-1.68,.06-.12-.05-.3,.27-.34,.06-.01,.05-.12,0-.18-.23-.2-.09-.33-.03-.5,.26-.75,.61-1.49,.56-2.29-.03-.62,.2-1.17,.29-1.76,.03-.2,.28-.34,.38-.53,.1-.18,.13-.38,.16-.57,.02-.12,.13-.2-.08-.38-.11-.09-.1-.26,.02-.3,.41-.14,.33-.41,.41-.64l.55-1.96c.05-.16-.06-.39,.33-.44,.05-.01-.03-.13-.05-.19-.02-.08-.11-.17-.04-.22,.59-.3,.45-.82,.59-1.25,.34-1.03,.57-2.1,.95-3.13,.11-.29-.13-.62-.02-.9,.1-.27,.15-.56,.26-.82,.08-.19-.02-.44,.4-.53,.12-.02,.16-.16,.09-.25-.3-.31-.03-.5-.02-.74,.03-.3,.34-.52,.06-.9-.09-.09,.18-.23,.25-.37,.12-.25,.22-.5,.29-.76,.03-.13-.03-.34,.01-.47,.28-1.06,.7-2.15,1.34-2.61,.08-.06,.16-.12,.26-.18,.05-.02,.1-.05,.16-.06,.04-.08,.09,0,.13-.01,.09,.03,.16,.04,.26,.09l.3,.17c.42,.25,.82,.44,1.24,.74l1.3,1.21,.65,.59,.42,.42c.2,.22,.65,.23,.48,.76,.41-.02,.46,.27,.39,.67-.01,.05,.15,.01,.24,.03,.24,.04,.74-.18,.51,.34-.01,.02,.03,.02,.03,.04,.09,.18,.58-.12,.51,.27-.04,.25,.19,.34,.32,.48,.06,.08,.13,.15,.2,.23,.09,.09,.2,.18,.32,.26,.13,.09,.19,.23,.29,.32,.09,.13,.14,.25,.39,.29,.08,.02-.13,.33-.08,.44,.27,.47,.01,.98,.64,1.28,.14,.08,.18,.23,.11,.36-.24,.47,.05,.78,.3,1.13,.31,.46,.54,1,.16,1.63-.09,.13-.16,.19,.05,.26,.14,.04,.14,.17,.17,.27,.3,1.12,.58,2.24,.84,3.36,.06,.31-.27,.68-.05,.96,.1,.12-.08,.31,.28,.36,.05,0,.1,.05,.08,.09-.31,.44,.31,.72,.24,1.13-.02,.09-.09,.17-.11,.26-.02,.1-.11,.2-.03,.27,.59,.5,.33,1.15,.55,1.72,.08,.19-.1,.45,.34,.57,.06,.02,.06,.11,.02,.15-.45,.42-.01,.74-.09,1.12-.04,.19,.26,.38-.14,.58-.04,.03,0,.1,.04,.14,.05,.08,.2,.14,.2,.22,.01,.22-.2,.47-.04,.66,.19,.22,.15,.44,.18,.67,.01,.13-.16,.27-.19,.4s.01,.26,.02,.39c.01,.17,.1,.36,.01,.54-.09,.18,.36,.3,.08,.52-.22,.15,.19,.31,.25,.48,.02,.08-.02,.17-.06,.26-.03,.06-.17,.13-.16,.19,.03,.13-.04,.26,.14,.41,.13,.1-.1,.28-.13,.42-.03,.15-.01,.29-.01,.44-.01,.15-.1,.3,0,.44,.42,.59,.13,1.18,.11,1.79Z"/>
        </g>
        <g>
          <path class="cls-2" d="M422.32,248.52c.32-3.15-1.75-5.02-1.75-5.02,0,0-.84-2.52-1.38-3.34-3.08-4.67-5.73-7.21-10.04-7.59-4.19-3.86-17.16-3.15-23.78,.47-2.12,1.93-8.28,.25-9.24,5.81-9.03,6.69-7.3,21.72-7.3,21.72,0,0-.32,8.02,2.32,14.66,2.63,6.65,6.54,10.67,8.63,12.41,2.09,1.73,6.74,2.56,6.74,2.56,0,0,14.22,3.62,20.76-1.85,.45-2.42,3.97-2.31,3.61-4.8,2.5-1.51,4.85-5.71,4.85-5.71l1.61-4.03s2.09-2.38,1.17-4.72c1.74-2,1.59-14.02,3.81-20.56Z"/>
          <path class="cls-2" d="M396.29,291.97c-5.08,0-9.59-1.12-9.92-1.2-.15-.03-4.79-.87-6.97-2.68-1.7-1.41-5.95-5.46-8.8-12.64-2.65-6.69-2.37-14.57-2.36-14.9-.07-.53-1.64-15.16,7.35-22.04,.78-3.82,3.88-4.42,6.38-4.89,1.23-.23,2.38-.46,3-1.02l.11-.08c6.59-3.61,19.69-4.49,24.32-.52,4.57,.49,7.33,3.37,10.28,7.84,.51,.78,1.21,2.77,1.4,3.34,.47,.48,2.13,2.42,1.83,5.41l-.03,.13c-1.08,3.19-1.59,7.75-2.05,11.78-.5,4.47-.87,7.4-1.67,8.69,.69,2.3-.94,4.48-1.31,4.93l-1.58,3.94c-.13,.24-2.3,4.1-4.78,5.8,.02,1.43-1.07,2.14-1.96,2.72-.78,.51-1.52,.99-1.68,1.88l-.04,.21-.16,.14c-2.96,2.47-7.34,3.17-11.36,3.17Zm-10.58-58.45c-.86,.75-2.15,.99-3.52,1.25-2.42,.46-4.92,.94-5.47,4.16l-.04,.23-.19,.14c-8.65,6.41-7.08,21.03-7.06,21.18,0,.17-.27,8.06,2.28,14.51,2.75,6.93,6.83,10.82,8.45,12.17,1.94,1.61,6.42,2.43,6.46,2.44,.18,.04,13.82,3.43,20.12-1.6,.33-1.24,1.33-1.9,2.15-2.43,1.01-.66,1.53-1.05,1.4-1.95l-.06-.39,.34-.2c2.34-1.41,4.61-5.45,4.63-5.49l1.68-4.13s1.84-2.14,1.06-4.11l-.13-.34,.24-.27c.76-.87,1.18-4.66,1.59-8.33,.46-4.06,.97-8.66,2.08-11.96,.25-2.75-1.5-4.39-1.57-4.46l-.11-.1-.05-.15c-.23-.68-.9-2.58-1.32-3.2-2.87-4.35-5.36-6.95-9.59-7.33l-.2-.02-.15-.14c-4.07-3.75-16.8-2.86-23.03,.52Z"/>
        </g>
        <path class="cls-1" d="M530.92,368.25c-.62,1.5-1.92,1.83-4.11,1.62,.16-.05,.31-.09,.46-.14,.92-.27,1.8-.6,2.65-.99,.34-.15,.68-.32,1-.48Z"/>
        <path class="cls-2" d="M532.06,309.24c-.03-7.89-.2-16.05-2.23-23.64-.97-3.39,.09-7.1-1.44-10.22-2.32-6.42-2.12-13.87-5.4-20.32-.65-1.42-.75-3.16-1.43-4.5-1.8-2.89-.87-5.7-2.41-8.17-1.46-1.43-1.56-4.3-2.2-5.58-1.71-4.15-4.05-9.21-6.24-13.46-1.71-1.58-1.48-3.52-2.36-5.55-3.31-7.15-7.44-14.27-11.23-21.07-5.17-9.8-11.32-18.6-17.95-27.36-7.08-7.42-15.15-14.5-21.76-21.94-2.11-1.58-4.29-3.4-6.78-4.36-2.53-2.3-5.32-4.61-8.8-5.32-1.78-.38-2.44-1.86-3.71-2.91-.88-.89-2.56-1.59-3.64-2.21-3-1.68-6.34-3.31-9.35-4.91-2.15-2.86-5.8-2.22-8.49-3.7-14.04-5.42-28.38-9.13-43.16-11.66-1.62-.2-2.76-.41-4.23,.02-.11,.06-.45,.02-.5-.12-1.45-1.83-4.16-1.51-6.12-1.77-6.56-1.44-13.13-1.08-19.8-1.23-2.15-.1-4.34-.11-6.46-.65-2.09-.33-4.98,.94-7.14-.31-2.19-.82-4.67,.04-6.63,.34-2.09-.93-4.19,.27-6.03,.12-2.14-.09-4.33,.17-6.48,.23,.27-.25,.54-.5,.79-.75,1.07-1.11,1.92-2.24,3.02-3.23,1.62-2.1,3.35-4.2,4.44-6.58,.13-.3,.42-.82,.55-.93,.69-.57,.89-1.41,1.12-2.01,.17-.47,.32-.87,.58-1.3,.6-1.03,1.22-2.07,1.79-3.12,.44-.82,.93-1.72,1.28-2.65,.27-.75,.54-1.5,.82-2.25,.11-.26,.25-.54,.53-.62,.3-.01,.43,.33,.48,.58,.01,.13,.03,.26,.02,.38v.28s-.02,.4-.02,.4c-.02,.57-.27,1.22-.16,1.71-.29,.43-.4,1.06-.6,1.63-.17,.59-.42,1.18-.6,1.78-.14,.48-.24,.96-.43,1.43-.21,.53-.54,1.02-.83,1.53-.03,.04-.06,.14-.06,.17-.01,.46-.38,.99-.65,1.48-.47,.9-.97,1.8-1.53,2.66-.51,.83-1.13,1.57-1.64,2.38l-.45,.72c-.41,.56-.43,1.32-.1,1.93,.31,.6,.95,1.04,1.56,1.16,.64,.15,1.39-.02,1.9-.47,.38-.4,.6-.75,.9-1.13,1.14-1.5,2.26-3,3.31-4.58,.58-.87,1.29-1.95,2.12-2.6,.93-1.76,2.47-3.23,3.48-5.01,.24-.43,.46-.82,.67-1.29,.26-.62,.75-1.51,1.13-2.02,.36-.48,.61-.94,.85-1.43,.6-1.29,1.38-2.57,1.71-3.92,.03-.16,.18-.51,.25-.58,.54-.58,.78-1.49,1.1-2.25,.62-1.42,1.17-2.89,1.73-4.33,.15-.38,.33-.74,.52-1.09,.27-.54,.46-1.04,.68-1.68,1.03-3.09,2.15-6.16,2.98-9.34,.68-2.61,1.76-5.26,2.08-7.98,.93-3.72,1.18-7.48,1.52-11.26,.1-1.25,.17-2.51,.16-3.77,0-.53-.15-1.28-.09-1.54,.21-.76,.05-1.55,.08-2.3,.03-.92-.06-1.79-.01-2.75,.04-1.24-.23-2.69-.19-4.02,0-.18-.03-.53-.08-.64-.31-.65-.33-1.49-.46-2.24-.14-.98-.39-1.74-.7-2.51-.12-.27-.2-.54-.32-.66-.01-.02-.01-.06-.02-.09-.02-.1-.03-.19-.04-.28,.13,.18,.28,.22,.48,.17,.31-.08,.5-.2,.57-.44,.09-.4,.09-1.1-.08-2.2-.2-1.44-.55-2.84-.84-4.23-.3-1.48-.88-2.71-1.3-4.1-.44-1.44-.81-2.97-1.52-4.25-.09-.15-.22-.52-.2-.6,.02-.62-.34-1.35-.58-1.99-.3-.81-.6-1.6-.93-2.4-.27-.71-.7-1.85-1.54-2.55-.96-.87-2.24-1.4-3.56-1.4-1.31-.02-2.66,.53-3.58,1.48-.19,.2-.32,.36-.47,.5-1.24,1.2-1.22,1.2-2.29,2.56-.51,.64-1.07,1.29-1.73,1.84-.43,.37-1.09,1-1.28,1.34-.39,.69-.96,1.2-1.48,1.76-1.04,1.13-2.08,2.23-3.24,3.13-1.01,.8-2.07,1.66-3.26,2.18-.37,.15-1.02,.56-1.24,.78-.57,.6-1.52,.9-2.06,1.35-.66,.53-1.39,.88-2.12,1.28-1.12,.6-2.29,1.07-3.42,1.58l-1.95,.89-.48,.23-.59,.33-.89,.57c-1.18,.76-2.41,1.46-3.67,2.13-.18,.1-.39,.2-.57,.3-2.51,1.48-4.72,2.42-6.64,2.88-.75,.18-1.43,.39-2.15,.65-1.03,.33-2.08,.68-3.12,.99-1.04,.31-2.1,.61-3.17,.89l-3.19,.83-3.21,.76-3.23,.73c-1.08,.25-2.19,.55-3.23,.71-1.03,.15-1.92,.48-2.9,.67-.56,.11-1.22,.32-1.68,.36-1.15,.06-2.25,.46-3.36,.71-.29,.06-.69,.33-.85,.34-1.35,.09-2.53,.53-3.76,1.02-.46,.18-1.13,.33-1.64,.42-.65,.11-1.18,.27-1.76,.55-.19,.11-.58,.27-.68,.27-.14,0-.22,0-.37,.03-.16,.01-.38,.15-.43,.17l.03,.38s-.04-.06-.08-.12c-.02-.02-.05-.1-.06-.13,0,.02-.03,.06-.09,.11-.05,.06-.52,.08-.65,.02-.61-.24-1.79-.2-2.84,.4-.3,.17-.56,.39-.8,.62-.11,.12-.22,.25-.31,.38-.04,.06-.11,.16-.15,.23-.05,.01-.17,.03-.34,.05-.37,.05-.95,.09-1.55,.3-.31,.12-.62,.28-.92,.51-.39,.32-.27,.25-.31,.28-.01,.01-.02,0-.08,.01l-.19,.03-.28,.05c-.39,.08-.75,.19-1.1,.32-.7,.27-1.32,.6-1.91,.95-.69,.41-1.31,.82-1.91,1.11-.3,.14-.59,.26-.86,.33l-.51,.12c-.26,.06-.5,.15-.73,.25-.46,.19-.87,.45-1.23,.72l-.9,.7c-.59,.47-1.17,.95-1.73,1.46-.58,.25-.98,.74-1.48,1.12-.66,.48-1.3,.98-1.94,1.5-1.39,1.13-2.91,2.2-4.1,3.52-.25,.29-.74,.74-.98,.85-.74,.38-1.34,1.04-1.95,1.63-1.06,.95-2.06,1.97-3.03,3.02-.37,.38-.67,.67-1.06,.97-.46,.34-1.16,.89-1.26,1.56-.01,.08-.19,.34-.31,.48-.27,.33-.54,.67-.79,1.01-.13,.16-.17,.18-.26,.3-.06,.1-.28,.26-.41,.39-.6,.56-1.21,1.14-1.81,1.76-.59,.61-1.2,1.26-1.69,2.02-.25,.38-.47,.79-.66,1.22-.17,.4-.34,.95-.42,1.27-.04,.15-.09,.28-.13,.38-.03,.06-.04,.09-.09,.16l-.14,.23-.58,.94c-.42,.67-.89,1.55-1.27,1.94-.67,.67-.57,1.29-1.09,1.86-.15,.17-.32,.57-.46,.71-.21,.17-.45,.57-.66,.89-.18,.33-.27,.6-.4,.92-.24,.6-.45,1.22-.73,1.79-.27,1.74-1.5,3.37-1.88,5.12-.42,.43-.6,1.21-.86,1.85-1.09,2.68-1.9,5.52-3.08,8.14-.11,.25-.28,.73-.26,.81,.11,.52-.51,.95-.46,1.54,.05,.56-.4,1.07-.57,1.6-.77,2.33-1.46,4.67-2.12,7.03-.09,.29-.06,.79-.13,.89-.57,1.03-.85,2.41-1.02,3.46-.34,1.95-.88,3.8-1.28,5.71-.36,1.67-.73,3.34-1.04,5.01-.17,.97-.44,1.92-.44,2.94,0,.58-.26,1.54-.45,2.26-.11,.37-.14,.44-.37,.94-.74,1.66-.81,3.27-1.09,5.02-3.12,1.96-6.05,4.18-8.65,6.78-.46,.51-2.37,1.03-2.66,1.38-.68,.7-1.88,.97-2.67,1.63-6.58,4.91-9.94,12.57-15.35,18.57-2.78,3.66-3.46,8.52-5.96,12.35-.23,.88-1.03,2.23-1.31,3.11-.59,.93-1.91,1.73-1.65,3,.11,2.01-1.45,4.07-1.88,6.13-1.2,2.84-1.88,6.31-3.04,9.11-1.46,1.51-1.09,3.89-1.04,5.64-1.64,2.11-1.43,5.28-1.25,7.65-1.03,2.11-2.39,4.5-1.98,7.05-.02,.02-.13,.17-.13,.17-1.23,2.56-2.13,5.28-2.95,8.04-.39,.02-.8,.01-1.22-.04-4.03-.59-8.13-.69-12.29-.81-5.07-.14-10.47-.86-15.76-1.26-1.38-.1-2.68-.16-4.11-.18-1.38,.01-2.72,.13-4.08,.2-2.68,.2-5.31,.47-7.96,.78-7.42,.79-15.13,.74-22.27,2.75-.56,.16-1.69,.29-2.01,.19-1.8-.52-4.03,.09-5.99,.41-7.6,1.23-15.39,1.97-22.72,4.24-1.67,.52-3.74,.71-5.61,1.08-1.88,.37-3.75,.78-5.63,1.1-1.04,.2-2.24,.4-3.31,.79-.54,.19-1.04,.4-1.48,.66-.44,.24-.82,.5-1.08,.78-1.55,1.55-2.62,3.11-4.04,4.45-13.78,13.04-9.13,31.35-13.72,28.86-.86-.46-1.27-3.12-1.46-6.01-.33-4.89,.85-9.75,3.37-13.93,1.97-3.26,4.44-7.45,6.44-11.2,.62-1.18-.75-2.43-1.87-1.67-6.63,4.53-12.49,9.26-14.05,18.61-1.34,3.37-1.48,7.16-1.74,10.74-.15,3.34-.1,6.67,.3,9.92,.11,.95-.11,2.2-.2,3.26-.15,1.06-.34,2.19-.41,3.3-.3,5.24,1.26,10.24,.78,15.4-.03,.33,.08,1.07,.19,1.26,.82,1.41,.54,3.5,.8,5.23,.61,4.23,.03,8.14,.25,12.26,.17,3.77,.34,7.59,.09,11.16-.05,.41-.08,.87-.15,1.25l-.06,.4c-.03,.16-.08,.32-.06,.5l-.03,.83-.09,2.85-.17,5.72c-.23,7.62-.51,15.22-.67,22.87-.03,1.37-.14,3.07,.1,4.04,.36,1.49,.16,2.13-.11,3.59-1.28,6.84-1.32,14.37-1.12,21.37,.12,5.34,.74,10.26,.26,15.5-.13,1.46-.02,3.62,.31,4.95,1.45,5.85,1.18,12.05,1.92,18.02,.15,1.16-.29,3.19-.12,3.58,1.11,2.43,.82,5.4,1.14,8.07,.32,2.56,.48,5.2,.65,7.81,.15,2.53,.55,5.56,.21,7.46-.53,3.04,.73,4.62,.67,7,0,.23,.05,.58,.02,.69-1.07,2.88,.06,5.28,.36,7.85,.09,.82,.4,1.93,.28,2.37-.81,3.05-1.12,6.28-.44,9.8-1.02,3.59-.3,7.76-.2,11.63,.26,10.28,.96,20.56,1.65,30.8,.59,10.21,1.2,20.44,1.8,30.65l.29,4.33,.23,3.23c.02,.31,.04,.44,0,.65-.55,3.63-.54,8.18,1.85,12.01,1.2,1.91,2.96,3.41,4.9,4.36,1.95,.96,4.02,1.39,6.02,1.52,1.47,.11,2.83-.33,4.23-.43,1.51-.13,3.44-.7,4.76-1.96,1.38-1.28,2.06-2.94,2.48-4.42,.5-1.71,1.08-3.83,.87-4.92-.67-3.96-.58-7.99-.74-11.72-.08-1.82,.17-3.74,.69-5,.11-.29,.22-.56,.34-.83,.14-.26,.12-.58,.17-.87v-.74l-.03-.57c-.03-.39-.08-.78-.14-1.15-.15-.81-.01-2.77,.25-3.45,.95-2.49,.72-5.4,.75-8.14,.06-3.87-.25-7.78-.72-11.62-.2-1.73-.58-3.37-1-5-.22-.81-.43-1.62-.65-2.43-.11-.39-.2-.76-.31-1.15-.03-.16-.1-.32-.11-.5,.01-.17,.04-.34,.08-.52,.03-.2,.06-.42,.11-.64,.04-.25,.1-.51,.14-.76,1.44-7.23,1.85-14.61,1.69-21.94-.15-7.33-.86-14.61-1.51-21.85-.14-1.55-.31-3.1-.5-4.65l-.27-2.34-.13-1.16c-.03-.37-.09-.84-.1-1.04l.08-2.14c.01-.37,.03-.74,.06-1.09l.14-.94c.29-1.22,.96-2.3,1.87-3.03,.37-.36,.86-1.08,1.42-1.57,.52-.42,1.44-1.09,1.71-1.03,.94,.11,1.81,.13,2.72,.18,.89,.09,1.82,.32,2.62,.73,.71,.43,1.68,1.2,2.56,1.87l2.71,2.05,2.69,2.05c.08,.05,.16,.11,.23,.18l.25,.25,.61,.6,1.22,1.2c3.28,3.18,6.67,6.25,10.1,9.24,2.4,2.1,5.09,3.98,6.99,6.5,.56,.75,2.36,2.12,3.18,2.43,1.51,.57,2.62,1.7,3.84,2.66,2.07,1.62,4.16,3.23,6.12,4.93,2.04,1.76,3.84,3.77,5.92,5.38l.29,.24c.08,.04,.13,.1,.18,.15,1.42,1.34,3.02,2.33,4.62,3.16,.81,.42,1.63,.79,2.47,1.12,.42,.17,.84,.32,1.26,.47,.53,.17,1.1,.38,1.65,.5h.1s.72-.08,.72-.08l.34-.03h.16c.19,.02,.33,.05,.42,.09,.13,.08,.2,.11,.33,.45l.22,.62,.34,.31c2.24,2.05,4.79,3.45,7.26,4.71,2.28,1.17,4.49,2.34,6.39,3.92,1.99,1.62,3.96,3.34,5.85,5.13,3.79,3.55,7.27,7.45,10.66,11.42,.75,.88,1.41,1.71,2.13,2.53,.25,.25,.43,.56,.74,.73,.28,.18,.61,.39,.83,.5,.48,.25,.98,.46,1.52,.61,.59,.18,1.95,.82,2.21,1.08,1.27,1.32,3.44,1.73,5.32,2.14,1,.23,2.04,.34,3.06,.38,1.02-.02,2.07-.1,3.07-.23,2-.39,3.94-1,5.68-1.94,3.53-1.8,6.45-4.3,9.24-6.86,5.89-5.47,10.65-11.85,15.44-18.08,2.39-3.11,4.77-6.24,7.29-9.21,1.26-1.49,2.54-2.94,3.91-4.3,.69-.7,1.35-1.31,2.12-2,.46-.44,.74-.82,1.07-1.17l.97-1.1c1.76-1.98,3.38-4.03,5.77-5.66,1.79-1.21,4.43-3.93,5.8-5.82,1.41-1.93,3-3.4,4.65-4.79,2.3-1.9,4.94-3.24,6.64-5.83,.17-.25,.82-.8,1.04-.88,2.38-.82,4.38-3.05,6.49-4.71,3.55-2.78,7.04-5.68,10.64-8.42,1.95-1.49,3.66-3.22,6.07-4.31,1.5-.68,4.31-2.96,5.34-4.31,1.14-1.5,2.46-2.53,3.79-3.59l-.12,1.32,2.99-2.38c.79-.62,1.68-1.06,2.63-1.35l.78,.43c.05-.22,.09-.43,.13-.64,1.64-.29,3.36-.1,4.89,.65,2.75,1.29,4.57,4.11,4.59,7.15v.12c.6,7.06,1.17,14.18,1.44,21.23,.15,3.48-.01,7.04-.03,10.61l-.12,10.69c-.01,1.78-.17,3.55-.33,5.33-.31,3.46-.02,7.3,.06,10.98,.02,.82,.27,1.95,.15,2.39-.77,2.82-.14,5.98-.25,8.92-.11,2.92-.33,5.84-.23,8.76,.01,.48,.02,.98,.04,1.46q0,.31-.01,.47l-.09,.55c-.15,1-.28,2.01-.37,3.03-.17,2.02-.13,4.08,.34,5.94,.08,3.83,.25,7.33,.03,10.95l-.08,1.36c-.01,.23-.03,.43-.04,.8v3.49c.01,1.86,.02,3.73,.06,5.6,.05,1.73,.02,3.17-.32,4.6-.14,.54,.03,2.34,.25,2.72,.85,1.51,.76,3.54,1.23,5.42l.45,1.73c.19,.58,.37,1.17,.59,1.77,.45,1.17,1.12,2.53,2.28,3.64,2.35,2.07,5.1,3.17,8,3.5,2.83,.3,5.97-.19,8.35-2.18,.59-.48,1.77-1.12,2.46-2.08,.67-.83,1.27-2.22,1.24-2.89,0-.85-.09-1.71-.23-2.55-.06-.42-.14-.83-.23-1.23-.09-.41-.19-.85-.26-1.06-.08-.26-.01-.48-.01-.82,.02-.34,.04-.68,.09-1,.06-.64,.16-1.22,.27-1.69,.61-2.62,.59-4.99,.64-7.41,.13-7.19,.47-14.34,.36-21.62-.12-7.68,.22-15.71,1.06-23.7,.8-7.32,.7-15.2,1-22.82,.09-1.92-.31-3.63-.28-5.16,.2-9.77,.57-19.56,.76-31.54-.1-9.53,.64-21.33-.42-33.05-.32-3.4-.62-5.35-1.27-6.35-.01-.3-.01-.6-.02-.9,.01-.1,.01-.18,.02-.28,.12,.18,.28,.3,.52,.31,2.24,.03,3.94-4.56,3.71-10.88-.03-1.15-.09-2.74,.14-3.53,.74-2.55,.52-5.38,.65-8.13,.13-2.71,.4-5.38,.45-8.11,.12-8.29-1.2-16.66-1.13-24.94,0-.14-.01-.29-.03-.45l-.04-.25c-.01-.05-.02-.13-.03-.16-.03,.04-.09,.01-.11,.01-.01-.01-.02,.02-.02-.06v-.24s.01-.48,.01-.48v-.96c.02-.66,.04-1.28,.11-1.95,.46-4.47,1.11-9.14,.96-14.09-.09-2.46-.38-4.99-1.04-7.5-.33-1.25-.75-2.5-1.3-3.69-.14-.3-.26-.6-.41-.9-.15-.27-.33-.62-.37-.62-.11-.09-.19-.14-.25-.26l.03-.09s.02-.24,.03-.36l.04-.81,.05-1.64,.03-3.32c.04-2.23,.23-4.49,.94-6.71,.18-.55,.34-1.62,.28-2.06-.51-3,.55-6.31,.57-9.82,0-.61,0-1.23-.02-1.87l-.03-.64v-.83c.04-1.1,.06-2.21,.1-3.31,.02-2.22-.06-4.45-.5-6.68-.26-1.24-.29-2.7-.33-4.23-.09-1.54-.2-3.13-.57-4.59-.25-.94,.23-3.11,.08-5.14-.71-7.79-2-15.57-4.7-23.24-1.4-3.8-3.1-7.66-6.16-11.14-1.53-1.68-3.23-3.08-5.01-4.25-1.76-1.23-3.59-2.21-5.43-3.16-5.04-2.5-10.49-3.84-15.91-4.77-5.44-.92-10.88-1.44-16.26-2.14-1.78-.25-4,.36-6,.34-2.56,.02-5.12,.16-7.65,.4-1.27,.11-2.54,.25-3.8,.41l-1.9,.26-.95,.14-.24,.03-.08,.02c-.05,.01-.12,.03-.17,.03h-.1l-3.93-.33-4.07-.39c-2.7-.27-5.43-.62-8.17-1.03-3.53-.54-7.15-.87-10.77-1.14-1.2-.09-2.52,.19-3.55,.02-1.08-.17-2.15-.32-3.23-.44-1.07-.12-2.15-.2-3.32-.24-2.13,.02-4.2,.23-6.33,.68-1.32,.28-3.67,.36-4.88,.11-1.31-.27-2.66-.36-4.02-.37,2.18-7.73,4.54-15.34,7.1-22.88,2.42-10.03,7.84-19.64,14.95-26.79,6.18-6.03,13.37-12.01,21.05-16.47,2.42-2.29,5.96-1.07,7.65-4.04,.2-.45,.28-.58,1.53-1.02,16.11-7.23,32.79-14.79,50.39-17.78,16.97-3.56,35.85-3.5,53.44-1.64,5.93-.09,11.33,3.35,17.1,2.02,2.92-.2,5.5,2.3,8.51,1.52,4.8,2.55,10.47,2.65,15.72,4.08,4.1,.45,6.25,3.8,10.38,3.16,15.49,3.23,30.52,9.09,45.28,15.03,.57,.25,.82,.38,1.29,1.07,2.74,2.83,7.11,3.8,10.37,5.72,.82,.61,2.13,1.41,3.07,1.85,1.06,1.73,3.09,2.92,4.65,4.05,3.69,3.09,5.85,8.44,10.39,10.62,3.55,4.03,7.55,8,10.59,12.43,.81,1.49,.44,3.51,2.38,4.09,4.52,4.11,6.36,10.64,10.74,15.08,.46,.71,.42,1.68,.87,2.5,.51,1.18,1.9,1.72,2.44,2.94,2.54,8.66,7.41,16.83,11.19,25.08,3.69,7.73,4.06,16.53,7.03,24.51,3.04,10.14,4.65,20.51,6.5,30.98,1.1,9.02,3.75,23.25,15.91,20.32,2.68,6.54,10.78-.16,8.56-5.97,1.2,1.93,1.63-.97,1.2-2.22Zm-356.55,47.98c2.25,6.25,5.12,22.16,5.12,22.16l-2.85,17.53s-12.21,16.97-23.48,17.24c-33.59,.82-36.75-33.51-36.75-33.51l3.06-22.78s6.97-21.21,12.05-29.17c6.44-6.74,6.58-15.17,12.29-22.05,5.36-2.78,12.66,8.09,11.78,11.93,7.12,5.47,17.61,28.18,18.79,38.65Z"/>
        <path class="cls-2" d="M694.42,244c-3.58-7.81-10.58-12.4-16.97-15.86-7.54-7.32-25.72-10.54-39.03-9.43-5.99,.83-14.2,3.3-23.15,6.98-2.09-.45-3.71,.74-5.14,1.79-1.31,.96-2.54,1.87-4.07,1.69l-.59-.07-.07,.59c-.09,.68-.47,.92-1.2,1.3-.71,.38-1.57,.83-2.02,1.97-.29-.1-.52-.11-.75-.03-.36,.13-.49,.43-.6,.68-.1,.23-.22,.51-.58,.83-6.23,5.72-12.91,15.38-16.47,21.92-3.01,5.53-3.05,12.2-.1,17.42,1.48,2.62,3.29,4.07,5.37,4.32,.22,.03,.44,.04,.66,.04,4.69,0,9.93-5.64,15.46-11.59,2.54-2.74,5.17-5.57,7.71-7.76,.46-.4,1.54-1.05,2.67-1.74,2.38-1.45,3.89-2.4,4.33-3.17,2.66-3.07,5.54-4.59,8.58-6.2,1.47-.78,2.99-1.58,4.52-2.58,1.52-.13,2.97-.95,3.39-1.21,.49-.07,2.28-.31,3.72-.58,2.12-.39,3.09-.48,4.01-.36,6.16,.83,25.74,6.68,27.54,7.67,.82,.45,2.34,.93,4.09,1.49,2.74,.87,6.15,1.96,8.04,3.29,2.15,1.51,8.13,2.8,11.07,.31,2.46-2.08,2.32-6.01-.41-11.68Z"/>
        <g>
          <path class="cls-3" d="M735.55,418.39c-1.17,4.09-.09,8.12-.96,12.26,.66,5.04-2.02,10.44-5.61,14.15-4,2.06-16.16,7.22-20.51,9.36-4.07,.65-6.91,3.17-10.58,4.79-.68,.17-1.67,.05-2.24,.45-2.95,2.77-7.31,3.05-10.07,5.7-2.78-.4-4.53,2.58-7.17,2.19-2.02,1.4-4.57,2.3-6.78,3.53-4.03,.54-7.11,3.09-10.56,4.64-5.1,1.2-9.72,4.93-14.79,6.86-.6,.31-1.17,.92-2.02,.44-2.22,1.57-4.84,2.71-7.34,3.84-8.41,4.73-16.58,9.54-25.74,11.82-6.67,4.51-24.82,3-33.33,3.11-9.72-.88-19.48-.85-28.7,.58-8.01,.14-15.99,1.13-24.07,.54-3.45-1.43-10.93,.85-10.3-4.88-14.11,4.17-14.73-17.83-15.68-27.11,.66-7.65-3.4-14.25-.69-21.63,3.81-6.21,5.61-4.04,10.94-5.8,.8-.61,1.56,.62,2.46,.31l7.54-.5c3-1.51,6.75-.56,9.92-.25,2.06-.55,4.26-.58,6.35-.29,5.36-.03,25.65-2.23,30.21-1.97,3.82-.17,7.31-.53,10.86-.18,1.6,.3,3.31-1.63,4.98-.75,9.44-.22,18.97-5.34,28.04-6.7,9.06-3.18,19.36-4.89,28.23-7.9,3.68,.71,10.95-3.36,14.55-2.69,10.53-1.93,21.67-6.44,32.25-8.08,10.55-3.75,21.95-7.29,33.32-10.02,8.13-3.27,16.61-.82,17.09,8.45,.75,1.14,1.13,2.28,.22,3.31-.2,.8,.98,1.42,.2,2.41Z"/>
          <path class="cls-3" d="M839.73,416.24c-1.45,4.91,.88,10.49-3.39,14.67-.17,1.37-2.19,3.44-3.37,2.97-2.44,2.67-11.39,5.27-14.23,3.8-6.02,1.4-14.02,2.66-20.56,1.49-.34,.61-.84,.15-1.14,.61-1.16,1.12-2.16,.09-3.26,1.22-3.3,.29-15.01,4.04-14-3.4-6.16,4.81-15.59-5.05-15.52-11.79-.44-1.02,1.65-1.38,.41-2.49-.19-.31,.54-.46,.52-.68-.28-2.06,1.56-9.98,3.21-11.17,.62-2.34,3.68-11.33,3.56-13.14,1.84-1.88,1.9-5.49,3.51-7.13,4.71-4.32,9.92-5.96,15.69-7.57,2.05-1.55,4.76-.44,6.27-1.97,1.85,1.14,4.22-1.66,5.94-.55,.14,.1,.36-.7,.55-.57,2.51,1.44,10.8-3.93,12.32-2.65,.15,.18,.4,.11,.45-.12,.56-1.51,1.9-.18,2.61-1.68,5.47-1.44,15.09-.05,16.57,6.55,2.5,2.58,1.25,7.11,2.57,11.29,.18,6.68-.84,15.78,1.28,22.31Z"/>
        </g>
        <path class="cls-2" d="M529.92,368.73c-.85,.39-1.73,.72-2.65,.99-.15,.05-.3,.09-.46,.14,2.2,.22,3.49-.12,4.11-1.62-.32,.16-.66,.33-1,.48Zm255.11-96.04l-.67,5.6c.31-2.25,.61-4.46,.87-6.69-.1,.36-.16,.71-.2,1.09Z"/>
        <path class="cls-2" d="M881.38,428.81c-3.49-20.36-8.21-39.66-11.24-60.16,.48-4.24-1.25-6-1.85-10.17-.23-2.23,.2-5.66-1.2-7.64-5.58-10.95-15.79-21.89-28.71-21.72-16.24,.13-33.08,6.43-48.95,8.8-2.56-.15-5.02-1.16-6.95-2.96-2.71-2.54-3.98-6.25-3.39-9.92,.06-.39,.04-.74-.04-1.06,3.18-5.87,.28-12.73,2.71-18.68-.02-6.17,.8-12.44,1.41-18.22,.31-2.55,.65-4.95,.97-7.28,.06-.51,.13-1.01,.21-1.52l.67-5.6c.04-.38,.11-.73,.2-1.09,.65-2.68,2.46-4.85,4.81-6h.11c3.49,.03,7.45-.24,10.78-1.02,3.24,.08,6.75-1.08,9.81-2.23,1.16-.39,2.8,.12,3.94-.4,2.56-1.4,5.73-2.72,8.07-4.7,6.04-5.13,11.24-11.35,15.47-18.02,.6-1.2,.75-2.93,1.51-4.02,.06,1.63-.85,3.58-1.57,5.01-.75,3.66-2.24,7.38-4.09,10.69-1.03,1.72-1.63,3.83-3.07,5.34-.55,.78-1.26,1.06-1.58,1.83-.2,.86,.33,1.26,1.16,1.45,.71,.25,1.11-.09,1.83-.33,1.98-.9,4.24-2.27,5.48-4.02,3.55-3.5,6.11-8.17,8.63-12.52,4.42-7,7.12-15.08,9-23.14,1.23-5.14,3.26-10.34,3.64-15.65,1.4-9.77,.52-19.62-.8-29.36-.14-1.02-.32-2.48-.31-2.98-.08-3.3-1.27-6.43-1.02-9.77,.06-2.82,1.29-5.9,2.1-8.69,.43-3.34,3.14-8.7,5.1-15.04,1.79-5.26,4.36-10.21,5.56-15.58,.97-3.22,1.41-6.73,1.7-9.99,1.06-4.52,.43-9.7-.14-14.32-.98-5.36-2.85-19.2-8.77-20.99-4.99-.43-3.59,8.66-5.1,11.64-1.69,5.24-4.04,10.53-6.36,15.53-.36,.67-1.21,2.02-1.36,2.58-.34,1.55-1.04,3.23-1.5,4.5-3.77,8.88-9.65,16.44-15.14,24.36-3.31,4.74-6.71,9.48-9,12.83-5.13,8.26-8.08,17.65-10.93,26.91,0,.06-.51-.03-.54-.1-.28-1.18-.7-2.43-.78-3.65-.53-4.1-.3-8.04,.37-12.04,.19-1.51,.55-3.41,.71-4.84,.95-2.29,1.35-4.58,2.23-6.89,.79-2.06,2.94-3.59,3.74-5.64,.16-.4,.11-1.28,.23-1.42,.66-.75,.82-1.42,1.07-2.26,6.82-12.19,9.23-27.18,6.56-40.97-.82-5.33-2.37-16.48-7.54-19.16-.42-.19-1.1,.56-1.53,.58-2.98,.37-3.23,3.21-3.48,5.5-.64,3.39-1.79,6.82-3.21,10.02-.5,.97-.64,2.66-.64,3.82-3.11,8.84-7.58,17.88-13.12,25.35-1.27,1.28-1.95,1.87-2.97,2.94-1.93,2.28-3.82,4.8-5.48,7.33-1.5,3.08-4.1,6.06-5.28,9.37-3.45,5.96-6.49,20.06-6.49,20.06,0,0-.79,5.22-1.84,5.62-.25,1.53-1.28-2.61-1.43-3.25l-.4-4.3c.28-6.01,1.26-11.71,3.35-17.33,1.43-5.06,3.82-9.44,5.78-14.27,.7-1.91,2.26-4.46,2.89-6.59,1.02-3.13,1.93-6.22,3.2-9.54,.32-.81,.16-2.6,.2-3.36,.16-2.19,1.79-4.91,1.84-6.95-.06-2.27-.4-5.52-.34-7.55-.18-1.22,.57-1.95,.55-2.9-.17-4.51-.6-9.14-1.88-13.48-.28-.98-.28-2.58-.39-3.4-.33-2.27-2.05-4.26-2.69-6.33-1.41-2.27-2.06-4.3-4.38-4.88-1.29-.13-1.95,1.07-2.28,2.18-1.11,4.29-1.85,9.2-3.7,13.41-.1,.19-.43,.55-.55,.9-.57,2.23-1.42,3.36-2.18,5.73-.58,1.67-2.61,4.28-3.1,6.24-1.08,2.68-2.75,5.41-3.7,8.21-4.72,8.14-10.37,15.79-15.49,23.77-7.11,10.16-13.69,20.84-18.48,32.38-1.14,3.03-1.97,6.18-2.65,9.35-.75,1.25-1.18,3.07-1.56,4.62-.38,1.45-1.41,2.49-1.54,3.68-.13,1-.38,1.3-.75,2.36-.29,.78-.25,2.61-.29,3.37-.13,2.47-.95,5.14-.85,7.55,.01,.75,.08,1.86-.4,3.25-.75,5.38-.68,10.96-.44,16.22,.01,3.64,1.2,6.98,2.19,10.42,.14,.5-.65,1.55-.66,1.81-.02,1.09,.74,2.43,1.07,3.63,2.63,8.32,7.06,16.66,13.82,22.42,2.19,1.95,4.63,3.26,6.77,5.1,3.42,2.24,7.1,4.23,10.88,5.75h0c4.99,2.05,8.14,6.88,8.16,12.09-3.63,18.46-6.99,37.36-11.76,55.07-.6,3.63-1.23,7.27-1.85,10.93-2.22,6.6-8.45,11.25-15.65,11.25h-5.14c-3.4-.61-6.77-1.2-10.07-.66-3.95-2.19-8.11,.17-12.12-1.36-1.76-.97-3.91-.13-5.59-.36-1.45-1.51-3.08,.66-4.62-.29-28.79-4.53-58.57-5.65-87.52-4.7-11.47,1.21-24.96,4.93-37.07,6.12-2.72-.17-3.95,1.76-6.5,1.5-8.32,.27-16.15,3.96-24.47,4.26-22.21,4.15-43.67,7.53-65.67,12.94-12.27,2.98-28.49,2.76-32.39,15.29h-.01l-.16,.55s0,.02-.01,.03l-1.23,4.17c-1.23,4.18-5.12,7.01-9.47,6.89l-5.78-.99c-4.98-1.3-10.67-2.12-15.97-2.68s-10.2-.87-13.58-1.16c-6.67-3.07-16.38-1.77-23.64-3.27-1.12,1.71-3.89,.92-3.88,3.4-.32,.92-1.99,.5-2,1.84-1.31,4.84,.19,10.58,.66,15.68-.48,15.69,10.84,32.51,20.04,44.11-.39,2.47,3.02,2.99,2.79,5.37-.19,.59,.3,1.1,.93,.98,10.14,8.3,18.03,19.44,29.7,22.63,.93,1.8,3.34,1.9,5.19,2.4,3.06,1.14,7.85,3.12,12.51,4.11l8.57,3.9,.25,.05c4.3,0,7.93,3.08,8.63,7.37l2.32,9.79c1.17,6.26,2.56,12.51,3.6,18.73,.51,22.22,29.13,14.51,43.7,15.41,2.86,1.23,7,.22,9.9,.81,1.11-.38,1.56-.62,2.82-.15,3.92,.27,8.4-.51,12.13-1.55,10.36-2.24,22.85-.31,33.64-2.11,36.31,1.17,75.71,1.77,107.66-17.81,14.62-7.36,30.07-13.99,45.12-21.49l3.17-.82c4.74-2.35,10.24-.03,12.15,4.56,.58,2.28,1.23,4.54,1.94,6.75l.18,.64h.01c.7,2.14,1.45,4.26,2.27,6.32l2.37,5.51c.87,1.2-.05,2.86,1.15,3.74,3.62,3.18,4.21,9.02,8.45,11.92,8.2,13.33,21.48,24.07,35.65,31.34,12.2,3.11,27.2,11.65,40.59,6.58-1.51,7.57,12.46,4.07,17.07,4.56,9.11-1.68,25.67-4.7,17.41-17.43-6.42-7.76-15.95-.28-23.84-1.88-5.43,1.08-10.94-.2-16.71,.08-26.18-9.84-53.3-30.17-60.59-58.2,1.04-1.97-.65-3.22-1.22-4.86-1.49-8.78,2.52-16.86,9.8-21.26,1.45-.51,2.96-.93,4.54-1.14,26.23,.41,52.72-.94,78.9-3.64,7.96-1.09,15.7-4.43,19.59-11.68,4.42-6.26,8.55-15.66,4.21-22.84,3.59,1.04,5.84-.41,4.54-5.89Zm-354.12-59.09c.92-.27,1.8-.6,2.65-.99,.34-.15,.68-.32,1-.48-.62,1.5-1.92,1.83-4.11,1.62,.16-.05,.31-.09,.46-.14Zm333.97,83.29c-.06-.6-.42-1.13-1.08-1.73-2.29-2.06-2.98-1.49-5.48,.1-4.16,2.65-9.41,1.93-14.12,2.81-22.49,.88-45.39,1.29-68.03,2.06-4.37-.48-7.77,2.58-11.94,3.07-1.2,.56-2.36,1.17-3.51,1.81-5.06,2.81-9.81,6.05-15.64,7.42-3.48,1.57-6.94,3.13-10.39,4.67-21.1,9.49-41.75,18.62-62.62,28.41-5.04,2.72-10.27,4.22-15.31,6.63-1.39,1.67-3.06,1.32-4.87,2.08-2.98,2.19-6.97,1.72-10.23,2.97-1.49,1.04-2.81-.45-3.91,1.14-21.29,3.82-43.75,4.1-65.31,6.01-5.4-1.58-11.32,.97-16.77-.53-1.17-.41-2.94-1.23-4.04,.39-5.28,.64-10.84,1.39-16.25,1.5-6.78,.32-14.33,.28-20.66,.67-6.12-1.28-12.17,1.07-18.39,.45-8.91-3.62-11.97-4.06-15.75-13.26-1.53-8.18-1.59-18.16-2.96-26.48-2.67-18.19-3.72-36.23-6.16-54.11-.01-2.94-1.45-4.99-1.18-7.78,.47-2.55-.27-4.17,.09-6.21-.57-7.41-1.69-14.9-2.67-22.12,1.45-7.61,10.69-9.16,17.42-10.09,2.47-1.9,4.76-.57,7.48-1.96,.72-.55,2.62-.29,3.95-.56,2.08,.14,3.21-1.71,5.3-1.73,3.18,.57,5.78-1.1,8.62-1.91,13.31-.61,26.2-6.95,39.64-8.14,17.37-3.74,34.85-7.64,52.02-8.49,2.47-1.41,5.43-.18,7.73-1.82,.73-.52,1.84-1.69,3.4-.68,5.68,.33,11.35-1.17,16.79-1.13,17.49,.5,34.81,3.39,52.37,5.12,20.19,1.25,40.14,3.81,60.32,4.14,0,0,5.28,.38,7.92-.7,1.25-.51,2.43-1.09,3.48-1.55,2.7,.01,4.58-1.25,7.16-1.73,5.64-.9,11.25-1.96,16.82-3.11,15.44-3.2,30.65-7.14,45.88-10.77,35.12-10.33,28.79,17.02,36.07,41.04,2.72,21.11,12.86,43.78,4.82,64.12Z"/>
      </g>
    </g>
  </g>
</svg>